#N canvas 176 44 903 770 10;
#X obj 185 20 bng 10 250 50 0 empty roll.Duration r.roll.Duration 17
7 0 8 -262144 -1 -1;
#X msg 272 172 16, f 2;
#X msg 248 172 8, f 2;
#X msg 219 172 4, f 2;
#X msg 190 172 2, f 2;
#X msg 161 172 1, f 2;
#X obj 212 235 t b f;
#X obj 216 338 / 1;
#X floatatom 231 479 5 0 0 1 ms - -;
#X floatatom 142 296 5 0 0 0 ms/beat - -;
#X floatatom 48 147 4 0 0 0 bpm - -;
#X obj 48 27 inlet BPM;
#X obj 57 46 bng 10 250 50 0 empty empty empty 17 7 0 10 -262144 -1
-1;
#X obj 84 181 t b f;
#X msg 49 216 60000;
#X obj 96 252 / 1;
#X floatatom 279 479 5 0 0 1 th_note - -;
#X obj 206 479 bng 15 250 50 0 roll.Duration empty s.roll.Duration
-40 7 0 6 -262144 -1 -1;
#X obj 362 22 bng 10 250 50 0 empty roll.Pitch r.roll.Pitch 17 7 0
8 -262144 -1 -1;
#X obj 423 242 t b f;
#X obj 197 456 bng 15 250 50 0 roll.Pitch empty s.roll.Pitch -40 7
0 6 -262144 -1 -1;
#X obj 362 132 sel 0 1 2 3 4 5 6 7 8 9 10;
#X floatatom 254 457 3 0 0 0 degree - -;
#X obj 214 409 nbx 2 14 30 100 0 1 empty empty BASE.NOTE 0 -8 0 6 -262144
-1 -1 60 256;
#X obj 412 321 + 60;
#X obj 369 742 outlet pitch;
#X obj 456 741 outlet duration;
#N canvas 0 22 450 278 (subpatch) 0;
#X array pattDuration 16 float 3;
#A 0 178.571 357.143 89.2857 0 714.286 714.286 178.571 89.2857 178.571
44.6429 714.286 357.143 0 89.2857 44.6429 0;
#X coords 0 3000 16 0 125 50 1 0 0;
#X restore 692 449 graph;
#X obj 404 265 f;
#X msg 541 65 1;
#X obj 581 156 + 1;
#X floatatom 581 176 5 0 0 0 - - -;
#X obj 619 155 i;
#X msg 658 91 0;
#X obj 581 195 mod 8;
#X floatatom 581 215 5 0 0 0 - - -;
#X obj 667 184 sel 0;
#X msg 619 58 0;
#X msg 600 29 tempo 1000 permin;
#X obj 475 431 + 1;
#X floatatom 475 451 5 0 0 0 - - -;
#X obj 513 430 i;
#X msg 563 369 0;
#X obj 475 470 mod 8;
#X floatatom 475 490 5 0 0 0 - - -;
#X obj 561 459 sel 0;
#X obj 452 319 r mtBeats;
#X floatatom 525 569 5 0 0 0 - - -;
#X obj 579 113 metro 50;
#N canvas 0 22 450 278 (subpatch) 0;
#X array pattNote 16 float 3;
#A 0 4 4 0 0 1 2 6 1 5 5 5 2 5 4 2 0;
#X coords 0 12 16 0 125 50 1 0 0;
#X restore 694 533 graph;
#X floatatom 399 567 3 0 0 0 - - -;
#X msg 449 636 100;
#X obj 427 668 makenote;
#X msg 485 636 2, f 2;
#X obj 280 634 + 60;
#X obj 185 130 sel 0 1 2 3 4;
#X msg 323 221 0;
#X obj 392 602 spigot;
#X obj 185 110 random 7;
#X msg 578 396 4;
#X msg 586 419 8;
#X msg 719 79 4;
#X msg 733 107 8;
#X msg 725 136 16;
#X msg 625 435 16;
#X msg 213 589 60;
#X msg 270 589 67;
#X msg 242 589 64;
#X msg 300 589 69;
#X text 22 89 increase RANDOM value for more chance of 0;
#X obj 541 30 bng 15 250 50 0 empty new r.new -8 -7 0 10 -262144 -1
-1;
#X obj 266 410 bng 15 250 50 0 new empty s.new -8 -7 0 10 -262144 -1
-1;
#X obj 305 415 hradio 10 1 0 3 writeLen empty writeLen 0 -8 0 10 -262144
-1 -1 2;
#X obj 772 56 sel 0 1 2;
#X obj 355 415 hradio 10 1 0 3 readLen empty readLen 0 -8 0 10 -262144
-1 -1 2;
#X obj 640 384 sel 0 1 2;
#X obj 435 476 + 1;
#X floatatom 374 384 2 0 0 0 - - -;
#X obj 449 368 spigot;
#X obj 341 383 tgl 15 0 empty empty on 17 7 0 10 -204786 -1 -1 1 1
;
#X obj 476 395 bng 15 250 50 0 empty empty empty 17 7 0 10 -262144
-1 -1;
#N canvas 0 22 450 300 chromatic 0;
#X msg 135 120 2, f 2;
#X msg 113 120 1, f 2;
#X obj 213 188 t b f;
#X msg 157 120 3, f 2;
#X msg 179 120 4, f 2;
#X msg 200 120 5, f 2;
#X msg 222 120 6, f 2;
#X msg 244 120 7, f 2;
#X msg 266 120 8, f 2;
#X msg 288 120 9, f 2;
#X msg 311 120 10, f 2;
#X msg 334 120 11, f 2;
#X obj 152 78 sel 0 1 2 3 4 5 6 7 8 9 10;
#X obj 152 58 random 10;
#X connect 0 0 2 0;
#X connect 1 0 2 0;
#X connect 3 0 2 0;
#X connect 4 0 2 0;
#X connect 5 0 2 0;
#X connect 6 0 2 0;
#X connect 7 0 2 0;
#X connect 8 0 2 0;
#X connect 9 0 2 0;
#X connect 10 0 2 0;
#X connect 11 0 2 0;
#X connect 12 0 1 0;
#X connect 12 1 0 0;
#X connect 12 2 3 0;
#X connect 12 3 4 0;
#X connect 12 4 5 0;
#X connect 12 5 6 0;
#X connect 12 6 7 0;
#X connect 12 7 8 0;
#X connect 12 8 9 0;
#X connect 12 9 10 0;
#X connect 12 10 11 0;
#X connect 13 0 12 0;
#X restore 446 56 pd chromatic;
#X obj 465 608 loadbang;
#X obj 562 741 outlet channel;
#X obj 495 548 tabread pattDuration;
#X obj 525 297 tabwrite pattDuration;
#X obj 374 549 tabread pattNote;
#X obj 527 321 tabwrite pattNote;
#X obj 770 27 r writeLen;
#X obj 638 355 r readLen;
#X obj 362 112 random 7;
#X floatatom 427 688 3 0 0 0 - - -;
#X floatatom 450 688 3 0 0 0 - - -;
#X msg 323 174 0, f 2;
#X msg 345 174 1, f 2;
#X msg 367 174 2, f 2;
#X msg 389 174 3, f 2;
#X msg 410 174 4, f 2;
#X msg 432 174 5, f 2;
#X msg 454 174 6, f 2;
#X msg 476 157 7, f 2;
#X msg 498 157 8, f 2;
#X msg 521 157 9, f 2;
#X msg 544 157 10, f 2;
#X connect 0 0 58 0;
#X connect 1 0 6 0;
#X connect 2 0 6 0;
#X connect 3 0 6 0;
#X connect 4 0 6 0;
#X connect 5 0 6 0;
#X connect 6 0 9 0;
#X connect 6 1 7 1;
#X connect 6 1 16 0;
#X connect 7 0 8 0;
#X connect 8 0 28 1;
#X connect 9 0 7 0;
#X connect 10 0 13 0;
#X connect 11 0 12 0;
#X connect 11 0 10 0;
#X connect 13 0 14 0;
#X connect 13 1 15 1;
#X connect 14 0 15 0;
#X connect 15 0 9 0;
#X connect 18 0 90 0;
#X connect 19 0 28 0;
#X connect 19 0 58 0;
#X connect 19 1 24 0;
#X connect 19 1 87 0;
#X connect 21 0 93 0;
#X connect 21 1 94 0;
#X connect 21 2 95 0;
#X connect 21 3 96 0;
#X connect 21 4 97 0;
#X connect 21 5 98 0;
#X connect 21 6 99 0;
#X connect 21 7 100 0;
#X connect 21 8 101 0;
#X connect 21 9 102 0;
#X connect 21 10 103 0;
#X connect 23 0 24 1;
#X connect 28 0 85 0;
#X connect 29 0 48 0;
#X connect 30 0 31 0;
#X connect 30 0 32 1;
#X connect 31 0 34 0;
#X connect 32 0 30 0;
#X connect 33 0 32 1;
#X connect 33 0 37 0;
#X connect 34 0 35 0;
#X connect 35 0 36 0;
#X connect 35 0 18 0;
#X connect 35 0 85 1;
#X connect 35 0 87 1;
#X connect 36 0 33 0;
#X connect 37 0 48 0;
#X connect 38 0 48 0;
#X connect 39 0 40 0;
#X connect 39 0 41 1;
#X connect 40 0 43 0;
#X connect 41 0 39 0;
#X connect 42 0 41 1;
#X connect 43 0 44 0;
#X connect 44 0 45 0;
#X connect 44 0 76 0;
#X connect 44 0 84 0;
#X connect 44 0 86 0;
#X connect 45 0 42 0;
#X connect 46 0 78 0;
#X connect 48 0 32 0;
#X connect 51 0 52 1;
#X connect 52 0 25 0;
#X connect 52 0 91 0;
#X connect 52 1 26 0;
#X connect 52 1 92 0;
#X connect 53 0 83 0;
#X connect 55 0 5 0;
#X connect 55 1 4 0;
#X connect 55 2 3 0;
#X connect 55 3 2 0;
#X connect 55 4 1 0;
#X connect 55 5 56 0;
#X connect 56 0 8 0;
#X connect 57 0 54 0;
#X connect 57 0 52 0;
#X connect 58 0 55 0;
#X connect 59 0 43 1;
#X connect 60 0 43 1;
#X connect 61 0 34 1;
#X connect 62 0 34 1;
#X connect 63 0 34 1;
#X connect 64 0 43 1;
#X connect 65 0 54 1;
#X connect 66 0 54 1;
#X connect 67 0 54 1;
#X connect 68 0 54 1;
#X connect 70 0 29 0;
#X connect 73 0 61 0;
#X connect 73 1 62 0;
#X connect 73 2 63 0;
#X connect 75 0 59 0;
#X connect 75 1 60 0;
#X connect 75 2 64 0;
#X connect 76 0 77 0;
#X connect 78 0 80 0;
#X connect 78 0 39 0;
#X connect 79 0 78 1;
#X connect 82 0 51 0;
#X connect 82 0 53 0;
#X connect 84 0 47 0;
#X connect 84 0 57 1;
#X connect 84 0 52 2;
#X connect 86 0 50 0;
#X connect 86 0 57 0;
#X connect 88 0 73 0;
#X connect 89 0 75 0;
#X connect 90 0 21 0;
#X connect 93 0 19 0;
#X connect 94 0 19 0;
#X connect 95 0 19 0;
#X connect 96 0 19 0;
#X connect 97 0 19 0;
#X connect 98 0 19 0;
#X connect 99 0 19 0;
#X coords 0 -1 1 1 200 50 1 200 380;
