#N canvas 957 177 479 443 10;
#X obj 138 52 nbx 3 12 0 127 0 0 empty empty empty 0 -8 0 9 -262144
-1 -1 0 256;
#X obj 138 36 nbx 3 12 0 127 0 0 empty empty empty 0 -8 0 9 -262144
-1 -1 0 256;
#X obj 207 51 nbx 3 12 0 127 0 0 empty empty empty 0 -8 0 10 -262144
-1 -1 0 256;
#X obj 74 30 bng 8 250 50 0 empty empty empty 17 7 0 10 -262144 -1
-1;
#X obj 68 48 spigot;
#X obj 74 66 bng 8 250 50 0 empty empty empty 17 7 0 10 -262144 -1
-1;
#X obj 67 250 tgl 10 0 empty empty empty 17 7 0 10 -262144 -1 -1 0
1;
#X obj 67 270 s ONkk;
#X obj 89 230 tgl 10 0 empty empty empty 17 7 0 10 -262144 -1 -1 0
1;
#X obj 111 209 tgl 10 0 empty empty empty 17 7 0 10 -262144 -1 -1 0
1;
#X obj 133 189 tgl 10 0 empty empty empty 17 7 0 10 -262144 -1 -1 0
1;
#X obj 89 250 s ONsn;
#X obj 111 229 s ONhh;
#X obj 133 209 s ONbass;
#X obj 68 12 notein 16;
#X obj 339 53 ctlin;
#X obj 352 101 nbx 3 12 0 127 0 0 empty empty empty 0 -8 0 10 -262144
-1 -1 0 256;
#X obj 366 82 nbx 3 12 0 127 0 0 empty empty empty 0 -8 0 10 -262144
-1 -1 0 256;
#X obj 338 121 nbx 3 12 0 127 0 0 empty empty empty 0 -8 0 10 -262144
-1 -1 0 256;
#X obj 316 139 s modeMEL;
#X obj 155 167 tgl 10 0 empty empty empty 17 7 0 10 -262144 -1 -1 0
1;
#X obj 177 146 tgl 10 0 empty empty empty 17 7 0 10 -262144 -1 -1 0
1;
#X obj 199 126 tgl 10 0 empty empty empty 17 7 0 10 -262144 -1 -1 0
1;
#X obj 221 104 tgl 10 0 empty empty empty 17 7 0 10 -262144 -1 -1 0
1;
#X obj 155 187 s ONmel;
#X obj 177 166 s ONperc;
#X obj 199 146 s ONpad;
#X obj 67 84 select 36 37 38 39 40 41 42 43;
#X obj 299 204 r modeMEL;
#X floatatom 299 248 3 0 0 0 - - -;
#X obj 299 224 div 21;
#X text 227 187 scale 127 input to 6 possible modes;
#X connect 4 0 5 0;
#X connect 4 0 27 0;
#X connect 6 0 7 0;
#X connect 8 0 11 0;
#X connect 9 0 12 0;
#X connect 10 0 13 0;
#X connect 14 0 0 0;
#X connect 14 0 3 0;
#X connect 14 0 4 0;
#X connect 14 1 1 0;
#X connect 14 1 4 1;
#X connect 15 0 18 0;
#X connect 15 0 19 0;
#X connect 15 1 16 0;
#X connect 15 2 17 0;
#X connect 20 0 24 0;
#X connect 21 0 25 0;
#X connect 22 0 26 0;
#X connect 27 0 6 0;
#X connect 27 1 8 0;
#X connect 27 2 9 0;
#X connect 27 3 10 0;
#X connect 27 4 20 0;
#X connect 27 5 21 0;
#X connect 27 6 22 0;
#X connect 27 7 23 0;
#X connect 28 0 30 0;
#X connect 30 0 29 0;
#X coords 0 443 1 442 85 60 0;
