#N canvas 507 54 590 640 10;
#X obj 186 56 inlet MIDI;
#X obj 244 100 route 1 2 3 4 5 6 7 8 9 10 11 12 13 14 15 16;
#X text 171 28 input is message with chan note vel like this:;
#X obj 131 181 print i1;
#X obj 196 184 print i2;
#X obj 84 278 pack f f;
#X obj 77 252 makenote 64 500;
#X msg 94 225 54 100;
#X msg 460 26 2 60 100;
#N canvas 72 354 618 416 synth-303 0;
#X obj 293 218 g_hsl A 0 1;
#X obj 293 250 g_hsl D 0 1;
#X obj 293 283 g_hsl S 0 1;
#X obj 293 316 g_hsl R 0 1;
#X obj 169 307 pack f f;
#X obj 293 118 g_hsl cutoff 0 1;
#X obj 293 152 g_hsl q 0 1;
#X obj 293 185 g_hsl mod 0 1;
#X obj 169 347 s_303 my303;
#X obj 293 87 g_hradio waveform 2;
#X msg 293 62 reset;
#X text 355 63 saw | square;
#X obj 91 58 inlet note;
#X obj 186 62 inlet vel;
#X obj 169 367 outlet~;
#X connect 0 0 1 0;
#X connect 1 0 2 0;
#X connect 2 0 3 0;
#X connect 3 0 8 1;
#X connect 4 0 8 0;
#X connect 5 0 6 0;
#X connect 6 0 7 0;
#X connect 7 0 0 0;
#X connect 8 0 14 0;
#X connect 9 0 5 0;
#X connect 10 0 9 0;
#X connect 12 0 4 0;
#X connect 13 0 4 1;
#X restore 372 167 pd synth-303;
#X floatatom 40 279 5 0 0 0 - - -;
#X floatatom 157 279 5 0 0 0 - - -;
#N canvas 94 27 512 548 synth-bass 0;
#X obj 127 402 s_fmbass fmbass;
#X obj 256 187 g_hsl A 0 1;
#X obj 256 219 g_hsl D 0 1;
#X obj 256 252 g_hsl S 0 1;
#X obj 256 285 g_hsl R 0 1;
#X obj 127 362 pack f f;
#X msg 256 90 symbol reset;
#X obj 256 151 g_hsl pluck 0 1;
#X obj 127 422 outlet~;
#X obj 53 60 inlet note;
#X obj 164 79 inlet vel;
#X connect 0 0 8 0;
#X connect 1 0 2 0;
#X connect 2 0 3 0;
#X connect 3 0 4 0;
#X connect 4 0 0 1;
#X connect 5 0 0 0;
#X connect 6 0 7 0;
#X connect 7 0 1 0;
#X connect 9 0 5 0;
#X connect 10 0 5 1;
#X restore 286 222 pd synth-bass;
#X obj 322 193 synth-minimoog;
#X msg 453 51 2 60 0;
#X obj 481 140 print i13;
#X connect 0 0 1 0;
#X connect 1 0 3 0;
#X connect 1 1 4 0;
#X connect 1 9 12 0;
#X connect 1 10 13 0;
#X connect 1 12 9 0;
#X connect 1 12 15 0;
#X connect 6 0 5 0;
#X connect 6 0 10 0;
#X connect 6 1 5 1;
#X connect 6 1 11 0;
#X connect 7 0 6 0;
#X connect 8 0 1 0;
#X connect 14 0 1 0;
