#N canvas 593 23 564 726 12;
#X obj 121 386 del 10;
#X obj 88 167 hsl 128 10 0 0.2 0 0 /g/swing /g/swing empty -2 -8 0
10 -228856 -1 -1 0 1;
#X obj 263 142 t b f;
#X obj 263 190 /;
#X msg 242 166 15000;
#X floatatom 289 217 5 0 0 0 - - -;
#X obj 216 230 t b f;
#X obj 160 299 *;
#X floatatom 173 335 5 0 0 0 - - -;
#X obj 263 28 inlet bpm;
#X obj 44 28 inlet metrobeat;
#X obj 44 69 mod 4;
#X obj 44 328 sel 1 3;
#X obj 171 527 + 1;
#X text 180 492 reset;
#X obj 121 526 int 1;
#X msg 153 493 0;
#X obj 121 430 bng 8 250 50 0 empty empty empty 17 7 0 10 -262144 -1
-1;
#X obj 90 430 bng 8 250 50 0 empty empty empty 17 7 0 10 -262144 -1
-1;
#X floatatom 131 553 5 0 0 0 - - -;
#X obj 153 459 r stop;
#X obj 292 346 /;
#X obj 292 290 t b f;
#X obj 292 369 * 100;
#X obj 292 391 + 50;
#X floatatom 316 419 4 0 0 0 - - -;
#X text 283 233 1/16ms;
#X text 210 180 %;
#X obj 144 94 clip 0 2;
#X obj 144 119 / 10;
#X obj 292 491 s mtSwing;
#X obj 85 183 nbx 4 10 -1e+37 1e+37 0 0 empty /g/swing empty 0 -8 0
8 -262144 -1 -1 0 256;
#X obj 168 182 nbx 4 12 -1e+37 1e+37 0 0 empty empty empty 0 -8 0 9
-262144 -1 -1 50 256;
#X obj 120 599 s mtBeats;
#X obj 144 67 r setMtSwing;
#X obj 83 209 r /g/swing;
#X connect 0 0 17 0;
#X connect 2 0 4 0;
#X connect 2 1 3 1;
#X connect 3 0 5 0;
#X connect 3 0 6 0;
#X connect 3 0 22 0;
#X connect 4 0 3 0;
#X connect 6 0 7 0;
#X connect 6 1 7 1;
#X connect 7 0 0 1;
#X connect 7 0 8 0;
#X connect 7 0 21 0;
#X connect 9 0 2 0;
#X connect 10 0 11 0;
#X connect 11 0 12 0;
#X connect 12 0 0 0;
#X connect 12 1 0 0;
#X connect 12 2 18 0;
#X connect 13 0 15 1;
#X connect 15 0 13 0;
#X connect 15 0 19 0;
#X connect 15 0 33 0;
#X connect 16 0 15 1;
#X connect 17 0 15 0;
#X connect 18 0 15 0;
#X connect 20 0 16 0;
#X connect 21 0 23 0;
#X connect 22 0 21 0;
#X connect 22 1 21 1;
#X connect 23 0 24 0;
#X connect 24 0 25 0;
#X connect 24 0 30 0;
#X connect 24 0 32 0;
#X connect 28 0 29 0;
#X connect 34 0 28 0;
#X connect 35 0 7 0;
#X coords 0 -1 1 1 150 50 1 80 150;
