#N canvas 692 38 520 654 10;
#X obj 12 46 bng 15 250 50 0 empty empty empty 17 7 0 10 -262144 -1
-1;
#X obj 12 66 random 7;
#X obj 12 88 sel 0 1 2 3 4 5 6;
#X msg 10 126 0;
#X msg 41 125 2;
#X msg 99 125 5;
#X msg 129 126 7;
#X floatatom 82 241 5 0 0 0 - - -;
#X obj 13 10 inlet;
#X obj 83 355 outlet;
#X floatatom 83 325 5 0 0 0 - - -;
#X msg 70 125 4;
#X msg 161 126 9;
#X msg 196 125 11;
#X obj 82 268 + 60;
#X connect 0 0 1 0;
#X connect 1 0 2 0;
#X connect 2 0 3 0;
#X connect 2 1 4 0;
#X connect 2 2 11 0;
#X connect 2 3 5 0;
#X connect 2 4 6 0;
#X connect 2 5 12 0;
#X connect 2 6 13 0;
#X connect 3 0 7 0;
#X connect 4 0 7 0;
#X connect 5 0 7 0;
#X connect 6 0 7 0;
#X connect 7 0 14 0;
#X connect 8 0 0 0;
#X connect 10 0 9 0;
#X connect 11 0 7 0;
#X connect 12 0 7 0;
#X connect 13 0 7 0;
#X connect 14 0 10 0;
