#N canvas 1001 58 726 566 10;
#X obj 35 30 tgl 30 0 onOff onOff power! 0 -10 0 10 #0c4410 #00fc04 #202020 0 1;
#N canvas 243 46 745 300 gui_MEL 0;
#X obj 158 177 hradio 10 1 0 3 /i/mel/pattLen /i/mel/pattLen pattLen 0 -5 0 8 #fcfcfc #000000 #000000 0;
#X obj 108 151 nbx 2 10 1 16 0 1 /i/mel/chan /i/mel/chan chan 25 6 0 9 #fcfcfc #000000 #000000 4 256;
#X obj 116 131 hradio 10 1 0 7 /i/mel/mode /i/mel/mode mode 0 -5 0 8 #fcfcfc #000000 #000000 0;
#X obj 157 152 nbx 2 10 60 72 0 1 /i/mel/root /i/mel/root root 25 6 0 9 #fcfcfc #000000 #000000 60 256;
#X obj 114 177 hradio 10 1 0 3 /i/mel/duration /i/mel/duration duration 0 -5 0 8 #fcfcfc #000000 #000000 0;
#X obj 188 203 tgl 10 0 /i/mel/shfOn /i/mel/shfOn empty 17 7 0 10 #fcfcfc #000000 #000000 0 1;
#X obj 171 203 bng 10 250 50 0 /i/mel/shfReshf /i/mel/shfReshf empty 17 7 0 10 #fcfcfc #000000 #000000;
#X obj 104 203 hradio 10 1 0 6 /i/mel/shfLen /i/mel/shfLen shuffle 0 -5 0 8 #fcfcfc #000000 #000000 0;
#X obj 101 101 cnv 15 105 15 empty empty MEL 5 8 0 14 #0c4410 #fcfcfc 0;
#X obj 191 101 bng 15 250 50 0 empty trgMel empty 17 7 0 10 #0c4410 #c4fcc4 #000000;
#X obj 210 101 tgl 15 0 /i/mel/on /i/mel/on empty 17 7 0 10 #0c4410 #00fc04 #000000 0 1;
#X coords 0 -1 1 1 125 120 2 100 100;
#X restore 555 10 pd gui_MEL;
#N canvas 243 46 745 300 gui_MEL 0;
#X obj 101 101 cnv 15 105 15 empty empty BASS 5 8 0 14 #541010 #fcfcfc 0;
#X obj 107 179 hradio 10 1 0 3 /i/bass/pattLen /i/bass/pattLen pattLen 0 -6 0 8 #fcfcfc #000000 #000000 0;
#X obj 164 133 nbx 2 10 1 16 0 1 /i/bass/chan /i/bass/chan chan 0 -6 0 9 #fcfcfc #000000 #000000 2 256;
#X obj 108 158 hradio 10 1 0 7 /i/bass/mode /i/bass/mode mode 0 -6 0 8 #fcfcfc #000000 #000000 0;
#X obj 108 133 hradio 10 1 1 5 /i/bass/oct /i/bass/oct oct 0 -6 0 8 #fcfcfc #000000 #000000 0;
#X obj 146 181 hradio 10 1 0 3 /i/bass/duration /i/bass/duration duration 0 -7 0 8 #fcfcfc #000000 #000000 0;
#X obj 189 200 tgl 10 0 /i/bass/shfOn /i/bass/shfOn empty 15 7 0 8 #fcfcfc #000000 #000000 0 1;
#X obj 173 200 bng 10 250 50 0 /i/bass/shfReshf /i/bass/shfReshf shfRshf 0 -6 0 8 #fcfcfc #000000 #000000;
#X obj 107 200 hradio 10 1 0 6 /i/bass/shfLen /i/bass/shfLen shfLen 0 -6 0 8 #fcfcfc #000000 #000000 0;
#X obj 191 101 bng 15 250 50 0 empty trgBass empty 17 7 0 10 #541010 #fcc4c4 #000000;
#X obj 210 101 tgl 15 0 /i/bass/on /i/bass/on empty 17 7 0 10 #0c4410 #00fc04 #000000 0 1;
#X coords 0 -1 1 1 125 120 2 100 100;
#X restore 555 150 pd gui_MEL;
#N canvas 0 23 450 300 gui_Pad 0;
#X obj 105 161 hradio 10 1 0 3 /i/pad/len /i/pad/len length 0 -8 0 9 #fcfcfc #000000 #000000 0;
#X obj 208 101 tgl 15 0 /i/pad/on /i/pad/on empty 17 7 0 10 #0c4410 #00fc04 #000000 0 1;
#X obj 106 136 nbx 2 10 1 16 0 1 /i/pad/chan /i/pad/chan chan 0 -8 0 9 #fcfcfc #000000 #000000 3 256;
#X obj 147 160 hradio 10 1 0 7 /i/pad/mode /i/pad/mode mode 0 -8 0 8 #fcfcfc #000000 #000000 0;
#X obj 149 136 hradio 10 1 1 5 /i/pad/oct /i/pad/oct oct 0 -8 0 9 #fcfcfc #000000 #000000 1;
#X obj 101 101 cnv 15 104 15 empty empty PAD 5 8 0 14 #505410 #fcfcfc 0;
#X obj 190 101 bng 15 250 50 0 empty trgPad empty 17 7 0 10 #505410 #fcfcc4 #000000;
#X coords 0 -1 1 1 124 77 2 100 100;
#X restore 555 288 pd gui_Pad;
#N canvas 0 23 450 300 gui_Kick 0;
#X obj 194 219 hradio 12 1 0 3 /i/kk/ghost /i/kk/ghost Ghost 0 -6 0 8 #fcfcfc #000000 #000000 0;
#X obj 238 218 nbx 3 14 1.2 120 1 1 /i/kk/ghostVel /i/kk/ghostVel ghostVel 0 -6 0 8 #fcfcfc #000000 #000000 60.742 256;
#X obj 108 218 tgl 15 0 /i/kk/ghostOn /i/kk/ghostOn ghostOn 0 -6 0 7 #fcfcfc #000000 #000000 0 1;
#X obj 144 219 nbx 3 14 1 10 0 0 /i/kk/ghostFact /i/kk/ghostFact ghostFact 0 -6 0 8 #fcfcfc #000000 #000000 0 256;
#X obj 266 101 tgl 15 0 /i/kk/on /i/kk/on empty 17 7 0 10 #0c4410 #00fc04 #000000 0 1;
#X obj 106 129 hradio 10 1 0 17 /i/kk/hits /i/kk/hits hits 0 -6 0 8 #fcfcfc #000000 #000000 0;
#X obj 106 151 hradio 10 1 0 17 /i/kk/len /i/kk/len len 0 -6 0 8 #fcfcfc #000000 #000000 0;
#X obj 107 174 hradio 10 1 0 16 /i/kk/off /i/kk/off offset 0 -6 0 8 #fcfcfc #000000 #000000 0;
#X obj 107 195 hradio 10 1 0 16 /i/kk/disp /i/kk/disp disp 0 -6 0 8 #fcfcfc #000000 #000000 0;
#X text 146 138 4;
#X text 187 138 8;
#X text 224 138 12;
#X text 146 161 4;
#X text 187 161 8;
#X text 224 161 12;
#X text 147 183 4;
#X text 188 183 8;
#X text 225 183 12;
#X obj 101 101 cnv 15 162 15 empty empty KICK 5 8 0 14 #2c004c #fcfcfc 0;
#X obj 248 101 bng 15 250 50 0 empty trgKick empty 17 7 0 10 #2c004c #e0c4fc #000000;
#X coords 0 -1 1 1 182 144 1 100 100;
#X restore 366 7 pd gui_Kick;
#N canvas 0 23 450 300 gui_Snare 0;
#X obj 264 101 tgl 15 0 /i/sn/on /i/sn/on empty 17 7 0 8 #0c4410 #00fc04 #000000 0 1;
#X obj 193 220 hradio 12 1 0 3 /i/sn/ghost /i/sn/ghost Ghost 0 -6 0 8 #fcfcfc #000000 #000000 0;
#X obj 237 219 nbx 3 14 1.2 120 1 1 /i/sn/ghostVel /i/sn/ghostVel ghostVel 0 -6 0 8 #fcfcfc #000000 #000000 55.5171 256;
#X obj 107 219 tgl 15 0 /i/sn/ghostOn /i/sn/ghostOn ghostOn 0 -6 0 7 #fcfcfc #000000 #000000 0 1;
#X obj 143 219 nbx 3 14 1 10 0 0 /i/sn/ghostFact /i/sn/ghostFact ghostFact 0 -6 0 8 #fcfcfc #000000 #000000 0 256;
#X obj 105 130 hradio 10 1 0 17 /i/sn/hits /i/sn/hits hits 0 -6 0 8 #fcfcfc #000000 #000000 0;
#X obj 105 152 hradio 10 1 0 17 /i/sn/len /i/sn/len len 0 -6 0 8 #fcfcfc #000000 #000000 0;
#X obj 106 175 hradio 10 1 0 16 /i/sn/off /i/sn/off offset 0 -6 0 8 #fcfcfc #000000 #000000 0;
#X obj 106 196 hradio 10 1 0 16 /i/sn/disp /i/sn/disp disp 0 -6 0 8 #fcfcfc #000000 #000000 0;
#X text 145 139 4;
#X text 186 139 8;
#X text 223 139 12;
#X text 145 162 4;
#X text 186 162 8;
#X text 223 162 12;
#X text 146 184 4;
#X text 187 184 8;
#X text 224 184 12;
#X obj 101 101 cnv 15 160 15 empty empty SNARE 5 8 0 14 #2c004c #fcfcfc 0;
#X obj 246 101 bng 15 250 50 0 empty trgSnare empty 17 7 0 10 #2c004c #e0c4fc #000000;
#X coords 0 -1 1 1 180 140 2 100 100;
#X restore 366 158 pd gui_Snare;
#N canvas 0 23 450 321 gui_HiHat 0;
#X obj 194 220 hradio 10 1 1 8 /i/hh/pedalNbr /i/hh/pedalNbr pedal 0 -6 0 8 #fcfcfc #000000 #000000 4;
#X obj 106 220 hradio 10 1 1 8 /i/hh/openNbr /i/hh/openNbr open 0 -6 0 8 #fcfcfc #000000 #000000 4;
#X obj 266 101 tgl 15 0 /i/hh/on /i/hh/on empty 17 7 0 10 #0c4410 #00fc04 #000000 0 1;
#X obj 106 129 hradio 10 1 0 17 /i/hh/hits /i/hh/hits hits 0 -6 0 8 #fcfcfc #000000 #000000 0;
#X obj 106 151 hradio 10 1 0 17 /i/hh/len /i/hh/len len 0 -6 0 8 #fcfcfc #000000 #000000 0;
#X obj 107 174 hradio 10 1 0 16 /i/hh/off /i/hh/off offset 0 -6 0 8 #fcfcfc #000000 #000000 0;
#X obj 107 195 hradio 10 1 0 16 /i/hh/disp /i/hh/disp disp 0 -6 0 8 #fcfcfc #000000 #000000 0;
#X text 146 138 4;
#X text 187 138 8;
#X text 224 138 12;
#X text 146 161 4;
#X text 187 161 8;
#X text 224 161 12;
#X text 147 183 4;
#X text 188 183 8;
#X text 225 183 12;
#X obj 101 101 cnv 15 162 15 empty empty HI-HAT 5 8 0 14 #2c004c #fcfcfc 0;
#X obj 216 101 bng 15 250 50 0 empty trgHhClosed empty 17 7 0 10 #2c004c #fc0400 #000000;
#X obj 232 101 bng 15 250 50 0 empty trgHhPedal empty 17 7 0 10 #2c004c #f8fc00 #000000;
#X obj 248 101 bng 15 250 50 0 empty trgHhOpen empty 17 7 0 10 #2c004c #00fc04 #000000;
#X obj 106 242 hradio 10 1 0 8 /i/hh/div /i/hh/div div 0 -5 0 8 #fcfcfc #000000 #000000 0;
#X coords 0 -1 1 1 182 159 2 100 100;
#X restore 366 305 pd gui_HiHat;
#N canvas 0 23 450 300 gui_Perc 0;
#X obj 214 101 tgl 15 0 /i/perc/on /i/perc/on empty 17 7 0 10 #0c4410 #00fc04 #000000 0 1;
#X obj 162 140 hradio 10 1 0 3 /i/perc/pattLen /i/perc/pattLen percLen 0 -6 0 8 #fcfcfc #000000 #000000 0;
#X obj 105 140 hradio 10 1 0 5 /i/perc/duration /i/perc/duration duration 0 -8 0 8 #fcfcfc #000000 #000000 0;
#X obj 181 162 tgl 10 0 /i/perc/shfOn /i/perc/shfOn shfOn 15 7 0 8 #fcfcfc #000000 #000000 0 1;
#X obj 168 162 bng 10 250 50 0 /i/perc/shfReshf /i/perc/shfReshf shfRshf 0 -6 0 8 #fcfcfc #000000 #000000;
#X obj 105 162 hradio 10 1 0 6 /i/perc/shfLen /i/perc/shfLen shfLen 0 -6 0 8 #fcfcfc #000000 #000000 0;
#X obj 101 101 cnv 15 110 15 empty empty PERCUSSION 5 8 0 14 #2c004c #fcfcc4 0;
#X obj 196 101 bng 15 250 50 0 empty trgPerc empty 17 7 0 10 #2c004c #e0c4fc #000000;
#X coords 0 -1 1 1 130 80 2 100 100;
#X restore 553 384 pd gui_Perc;
#N canvas 388 391 450 300 gui_Swing 0;
#X obj 106 98 hsl 128 10 0 0.2 0 0 /g/swing /g/swing swing -2 -6 0 8 #dcdcdc #000000 #000000 0 1;
#X obj 174 86 nbx 4 10 -1e+37 1e+37 0 0 empty mtSwing empty 0 -6 0 9 #fcfcfc #000000 #000000 0 256;
#X obj 103 63 nbx 3 14 2.4 240 0 1 /g/bpm /g/bpm bpm 0 -8 0 10 #fcfcfc #000000 #000000 122 256;
#X obj 185 63 nbx 4 14 0 1e+37 0 0 empty /g/revolvingBeat beat 0 -6 0 8 #fcfcfc #000000 #000000 0 256;
#X obj 143 63 nbx 4 14 0 1e+37 0 0 empty /g/bar bar 0 -6 0 8 #fcfcfc #000000 #000000 0 256;
#X text 128 85 comment;
#X coords 0 -1 1 1 140 60 2 100 50;
#X restore 92 11 pd gui_Swing;
#N canvas 0 23 262 233 gui_MIDIout 0;
#X obj 104 103 bng 15 250 50 0 empty MIDIout01 1 5 8 0 10 #404040 #00fc04 #000000;
#X obj 123 103 bng 15 250 50 0 empty MIDIout02 2 5 8 0 10 #404040 #00fc04 #000000;
#X obj 104 121 bng 15 250 50 0 empty MIDIout03 3 5 8 0 10 #404040 #00fc04 #000000;
#X obj 123 121 bng 15 250 50 0 empty MIDIout04 4 5 8 0 10 #404040 #00fc04 #000000;
#X coords 0 -1 1 1 42 39 2 100 100;
#X restore 284 12 pd gui_MIDIout;
#N canvas 0 23 450 300 gui_PatternA 0;
#X obj 106 132 bng 15 250 50 0 patternA_new empty new 0 -7 0 10 #fcfcfc #000000 #000000;
#X obj 130 134 hradio 10 1 0 3 /i/patternA/len /i/patternA/len length -1 -8 0 10 #fcfcfc #000000 #000000 0;
#X obj 167 134 hradio 10 1 0 7 /i/patternA/dens /i/patternA/dens silence_density 0 -8 0 9 #fcfcfc #000000 #000000 0;
#X obj 104 102 cnv 15 100 15 empty empty pattern_A 0 8 0 14 #fcfcfc #404040 0;
#X coords 0 -1 1 1 150 50 2 100 100;
#X restore 367 475 pd gui_PatternA;
#N canvas 0 23 450 300 gui_PatternA 0;
#X obj 106 132 bng 15 250 50 0 patternB_new empty new 0 -7 0 10 #fcfcfc #000000 #000000;
#X obj 130 134 hradio 10 1 0 3 /i/patternB/len /i/patternB/len length -1 -8 0 10 #fcfcfc #000000 #000000 0;
#X obj 167 134 hradio 10 1 0 7 /i/patternB/dens /i/patternB/dens silence_density 0 -8 0 9 #fcfcfc #000000 #000000 0;
#X obj 104 102 cnv 15 100 15 empty empty pattern_B 0 8 0 14 #fcfcfc #404040 0;
#X coords 0 -1 1 1 150 50 2 100 100;
#X restore 533 476 pd gui_PatternA;
#X obj 27 138 kollabs-fq/ds_transition_gui urgante;
#X obj 28 249 kollabs-fq/ds_scheduler_gui urgante;
#X obj 188 109 kollabs-fq/ds_gui urgante;
#X obj 94 78 hsl 128 15 0.01 1 1 0 /g/masterVol /g/masterVol master_volume 7 7 0 10 #fcfcfc #000000 #000000 0 1;
