#N canvas 660 75 578 422 10;
#X declare -path ./else;
#X declare -path ./kollabs-fq;
#X declare -path ./mrpeach;
#X obj 33 68 bng 10 250 50 0 start empty s:start 17 7 0 8 -262144 -4034
-1;
#X obj 60 81 bng 10 250 50 0 stop empty s:stop 17 7 0 8 -262144 -258113
-1;
#N canvas 679 47 504 620 metronome 0;
#X msg 127 93 stop;
#X msg 104 433 tempo \$1 permin;
#X obj 104 406 * 4;
#X obj 194 164 + 1;
#X text 205 98 reset;
#X obj 42 481 metro 1 60 permin;
#X obj 253 12 inlet BPM;
#X obj 126 12 inlet Stop;
#X obj 42 12 inlet Start;
#X obj 42 545 outlet Bang;
#X obj 244 547 outlet BPM;
#X obj 149 164 int 1;
#X obj 244 322 r /g/bpm;
#N canvas 627 303 422 453 calcBeat 0;
#X obj 123 238 + 1;
#X obj 71 237 int 1;
#X obj 42 27 inlet inc;
#X obj 147 24 inlet reset;
#X obj 63 215 bng 8 250 50 0 empty empty empty 17 7 0 10 -262144 -1
-1;
#X floatatom 8 142 5 0 0 0 - - -;
#X floatatom 32 265 5 0 0 0 - - -;
#X floatatom 7 47 5 0 0 0 - - -;
#X obj 42 122 mod 5;
#X obj 42 165 sel 0;
#X obj 94 80 + 1;
#X obj 42 79 int 1;
#X obj 52 58 bng 8 250 50 0 empty empty empty 17 7 0 10 -262144 -1
-1;
#X msg 158 136 1;
#X obj 50 185 t b b;
#X obj 275 219 + 1;
#X obj 227 218 int 1;
#X floatatom 168 329 5 0 0 0 - - -;
#X obj 227 286 mod 5;
#X obj 243 312 sel 0;
#X msg 322 327 1;
#X obj 71 300 outlet beat;
#X obj 208 363 outlet revolvingBeat;
#X connect 0 0 1 1;
#X connect 1 0 0 0;
#X connect 1 0 6 0;
#X connect 1 0 21 0;
#X connect 2 0 7 0;
#X connect 2 0 12 0;
#X connect 3 0 1 0;
#X connect 3 0 11 0;
#X connect 3 0 16 0;
#X connect 4 0 1 0;
#X connect 4 0 16 0;
#X connect 8 0 5 0;
#X connect 8 0 9 0;
#X connect 9 0 14 0;
#X connect 10 0 11 1;
#X connect 11 0 10 0;
#X connect 11 0 8 0;
#X connect 12 0 11 0;
#X connect 13 0 11 0;
#X connect 14 0 13 0;
#X connect 14 1 4 0;
#X connect 15 0 16 1;
#X connect 16 0 15 0;
#X connect 16 0 18 0;
#X connect 17 0 22 0;
#X connect 18 0 17 0;
#X connect 18 0 19 0;
#X connect 19 0 20 0;
#X connect 20 0 16 0;
#X restore 271 214 pd calcBeat;
#N canvas 818 405 306 466 calcBar 0;
#X obj 123 275 + 1;
#X obj 71 274 int 1;
#X obj 71 337 outlet count;
#X obj 42 27 inlet inc;
#X obj 147 24 inlet reset;
#X obj 63 263 bng 8 250 50 0 empty empty empty 17 7 0 10 -262144 -1
-1;
#X floatatom 8 196 5 0 0 0 - - -;
#X floatatom 32 294 5 0 0 0 - - -;
#X floatatom 7 47 5 0 0 0 - - -;
#X obj 42 176 mod 5;
#X obj 42 219 sel 0;
#X obj 94 80 + 1;
#X obj 42 79 int 1;
#X obj 52 58 bng 8 250 50 0 empty empty empty 17 7 0 10 -262144 -1
-1;
#X msg 158 190 1;
#X obj 50 239 t b b;
#X floatatom 8 99 5 0 0 0 - - -;
#X obj 197 85 r /g/meter;
#X obj 197 105 sel 0 1;
#X msg 202 128 4, f 1;
#X msg 218 128 5, f 1;
#X connect 0 0 1 1;
#X connect 1 0 0 0;
#X connect 1 0 2 0;
#X connect 1 0 7 0;
#X connect 3 0 8 0;
#X connect 3 0 13 0;
#X connect 4 0 1 0;
#X connect 4 0 12 0;
#X connect 5 0 1 0;
#X connect 9 0 6 0;
#X connect 9 0 10 0;
#X connect 10 0 15 0;
#X connect 11 0 12 1;
#X connect 12 0 11 0;
#X connect 12 0 9 0;
#X connect 12 0 16 0;
#X connect 13 0 12 0;
#X connect 14 0 12 0;
#X connect 15 0 14 0;
#X connect 15 1 5 0;
#X connect 17 0 18 0;
#X connect 18 0 19 0;
#X connect 18 1 20 0;
#X restore 182 261 pd calcBar;
#X obj 126 33 t b b;
#X msg 239 96 0;
#X obj 239 118 t f f f;
#X obj 284 44 hradio 10 1 0 2 /g/meter /g/meter meter 0 -6 0 8 -262144
-1 -1 0;
#X obj 190 281 s /g/bar;
#X obj 271 254 s /g/beat;
#X obj 258 344 s mtBpm;
#X obj 279 236 s /g/revolvingBeat;
#X obj 49 32 s /g/bpm;
#X obj 159 208 s mt16ths;
#X obj 148 546 outlet tics;
#X floatatom 117 288 5 0 0 0 - - -;
#X text 128 408 tics per beat;
#X connect 0 0 5 0;
#X connect 1 0 5 0;
#X connect 2 0 1 0;
#X connect 3 0 11 1;
#X connect 5 0 9 0;
#X connect 5 0 11 0;
#X connect 7 0 15 0;
#X connect 8 0 5 0;
#X connect 8 0 23 0;
#X connect 11 0 3 0;
#X connect 11 0 13 0;
#X connect 11 0 24 0;
#X connect 11 0 25 0;
#X connect 11 0 26 0;
#X connect 12 0 2 0;
#X connect 12 0 10 0;
#X connect 12 0 21 0;
#X connect 13 0 20 0;
#X connect 13 0 14 0;
#X connect 13 1 22 0;
#X connect 14 0 19 0;
#X connect 15 0 16 0;
#X connect 15 1 0 0;
#X connect 16 0 17 0;
#X connect 17 0 14 1;
#X connect 17 1 13 1;
#X connect 17 2 11 1;
#X coords 0 620 1 619 128 32 0;
#X restore 18 103 pd metronome;
#N canvas 672 69 608 709 hihat 0;
#X obj 390 323 s hhSeq;
#N canvas 0 50 460 205 sendHhParams 0;
#X obj 28 76 inlet hits;
#X obj 113 16 inlet offset;
#X obj 199 16 inlet length;
#X obj 28 126 s getHiHatHits;
#X obj 113 94 s getHiHatOffset;
#X obj 199 67 s getHiHatLength;
#X obj 273 97 inlet displacement;
#X obj 273 148 s getHiHatDisplacement;
#X connect 0 0 3 0;
#X connect 1 0 4 0;
#X connect 2 0 5 0;
#X connect 6 0 7 0;
#X restore 486 293 pd sendHhParams;
#N canvas 0 50 537 684 calcHhSeq 0;
#X obj 243 580 select 1;
#X obj 192 549 < \$1;
#X floatatom 38 31 3 0 0 0 - - -;
#X floatatom 204 580 3 0 0 0 - - -;
#X obj 25 11 inlet currentBeatNumber;
#X obj 199 11 inlet hits;
#X obj 323 635 outlet bangs;
#X obj 195 634 outlet sequence;
#X floatatom 209 30 3 0 0 0 - - -;
#X floatatom 398 79 3 0 0 0 - - -;
#X obj 338 59 inlet offset;
#X obj 283 12 inlet length;
#X floatatom 288 166 3 0 0 0 - - -;
#X obj 288 213 -;
#X floatatom 304 237 3 0 0 0 - - -;
#X obj 338 83 t b f;
#X obj 155 474 % \$3;
#X obj 139 414 * \$1;
#X obj 139 362 + \$2;
#X floatatom 144 385 3 0 0 0 - - -;
#X floatatom 147 434 3 0 0 0 - - -;
#X floatatom 176 497 3 0 0 0 - - -;
#X obj 25 198 mod;
#X floatatom 41 219 3 0 0 0 - - -;
#X obj 40 253 -;
#X floatatom 50 277 3 0 0 0 - - -;
#X obj 121 91 t f f;
#X obj 153 131 +;
#X floatatom 153 153 3 0 0 0 - - -;
#X obj 403 12 inlet displace;
#X obj 220 88 t b f;
#X floatatom 292 32 3 0 0 0 - - -;
#X floatatom 403 34 3 0 0 0 - - -;
#X obj 40 311 moses 0;
#X text 305 580 <-- bang every hit;
#X msg 40 333 -8;
#X connect 0 0 6 0;
#X connect 1 0 0 0;
#X connect 1 0 3 0;
#X connect 1 0 7 0;
#X connect 4 0 2 0;
#X connect 4 0 22 0;
#X connect 5 0 1 1;
#X connect 5 0 8 0;
#X connect 5 0 17 1;
#X connect 10 0 9 0;
#X connect 10 0 15 0;
#X connect 11 0 12 0;
#X connect 11 0 16 1;
#X connect 11 0 31 0;
#X connect 11 0 30 0;
#X connect 12 0 13 0;
#X connect 13 0 14 0;
#X connect 13 0 18 1;
#X connect 15 0 12 0;
#X connect 15 1 13 1;
#X connect 16 0 21 0;
#X connect 16 0 1 0;
#X connect 17 0 16 0;
#X connect 17 0 20 0;
#X connect 18 0 17 0;
#X connect 18 0 19 0;
#X connect 22 0 23 0;
#X connect 22 0 24 0;
#X connect 24 0 25 0;
#X connect 24 0 33 0;
#X connect 26 0 24 1;
#X connect 26 1 27 0;
#X connect 27 0 22 1;
#X connect 27 0 28 0;
#X connect 29 0 26 0;
#X connect 29 0 32 0;
#X connect 30 0 27 0;
#X connect 30 1 27 1;
#X connect 33 0 35 0;
#X connect 33 1 18 0;
#X connect 35 0 7 0;
#X restore 402 294 pd calcHhSeq;
#X obj 367 234 t f f;
#N canvas 121 60 347 387 emphHh 0;
#X floatatom 155 55 3 0 0 0 - - -;
#N canvas 0 50 537 684 calcHhDyn 0;
#X obj 243 580 select 1;
#X obj 192 549 < \$1;
#X floatatom 38 31 3 0 0 0 - - -;
#X floatatom 204 580 3 0 0 0 - - -;
#X obj 25 11 inlet currentBeatNumber;
#X obj 199 11 inlet hits;
#X obj 323 635 outlet bangs;
#X obj 195 634 outlet sequence;
#X floatatom 209 30 3 0 0 0 - - -;
#X floatatom 398 79 3 0 0 0 - - -;
#X obj 338 59 inlet offset;
#X obj 283 12 inlet length;
#X floatatom 288 166 3 0 0 0 - - -;
#X obj 288 213 -;
#X floatatom 304 237 3 0 0 0 - - -;
#X obj 338 83 t b f;
#X obj 155 474 % \$3;
#X obj 139 414 * \$1;
#X obj 139 362 + \$2;
#X floatatom 144 385 3 0 0 0 - - -;
#X floatatom 147 434 3 0 0 0 - - -;
#X floatatom 176 497 3 0 0 0 - - -;
#X obj 25 198 mod;
#X floatatom 41 219 3 0 0 0 - - -;
#X obj 40 253 -;
#X floatatom 50 277 3 0 0 0 - - -;
#X obj 121 91 t f f;
#X obj 153 131 +;
#X floatatom 153 153 3 0 0 0 - - -;
#X obj 403 12 inlet displace;
#X obj 220 88 t b f;
#X floatatom 292 32 3 0 0 0 - - -;
#X floatatom 403 34 3 0 0 0 - - -;
#X obj 40 311 moses 0;
#X text 305 580 <-- bang every hit;
#X msg 40 333 -8;
#X connect 0 0 6 0;
#X connect 1 0 0 0;
#X connect 1 0 3 0;
#X connect 1 0 7 0;
#X connect 4 0 2 0;
#X connect 4 0 22 0;
#X connect 5 0 1 1;
#X connect 5 0 8 0;
#X connect 5 0 17 1;
#X connect 10 0 9 0;
#X connect 10 0 15 0;
#X connect 11 0 12 0;
#X connect 11 0 16 1;
#X connect 11 0 31 0;
#X connect 11 0 30 0;
#X connect 12 0 13 0;
#X connect 13 0 14 0;
#X connect 13 0 18 1;
#X connect 15 0 12 0;
#X connect 15 1 13 1;
#X connect 16 0 21 0;
#X connect 16 0 1 0;
#X connect 17 0 16 0;
#X connect 17 0 20 0;
#X connect 18 0 17 0;
#X connect 18 0 19 0;
#X connect 22 0 23 0;
#X connect 22 0 24 0;
#X connect 24 0 25 0;
#X connect 24 0 33 0;
#X connect 26 0 24 1;
#X connect 26 1 27 0;
#X connect 27 0 22 1;
#X connect 27 0 28 0;
#X connect 29 0 26 0;
#X connect 29 0 32 0;
#X connect 30 0 27 0;
#X connect 30 1 27 1;
#X connect 33 0 35 0;
#X connect 33 1 18 0;
#X connect 35 0 7 0;
#X restore 37 220 pd calcHhDyn;
#X obj 56 85 hradio 8 1 0 15 empty empty accents 0 -8 0 10 -262144
-1 -1 7;
#X obj 59 136 hradio 8 1 0 8 empty empty acc_off 0 -8 0 10 -262144
-1 -1 2;
#X obj 57 110 hradio 8 1 0 16 empty empty acc_len 0 -8 0 10 -262144
-1 -1 14;
#X floatatom 188 104 3 0 0 0 - - -;
#X floatatom 180 79 3 0 0 0 - - -;
#X floatatom 127 130 3 0 0 0 - - -;
#X obj 69 309 outlet;
#X obj 37 20 inlet beats;
#X obj 142 28 r hhAcc;
#X obj 227 28 r hhAccLen;
#X obj 229 68 r hhAccOff;
#X obj 69 273 * 10;
#X connect 1 0 13 0;
#X connect 2 0 1 1;
#X connect 2 0 6 0;
#X connect 3 0 1 3;
#X connect 3 0 7 0;
#X connect 4 0 1 2;
#X connect 4 0 5 0;
#X connect 9 0 1 0;
#X connect 10 0 2 0;
#X connect 11 0 4 0;
#X connect 12 0 3 0;
#X connect 13 0 0 0;
#X connect 13 0 8 0;
#X coords 0 -1 1 1 170 100 1 50 50;
#X restore 86 359 pd emphHh;
#X obj 388 362 bng 8 250 50 0 empty empty empty 17 7 0 10 -262144 -1
-1;
#X obj 413 562 makenote;
#X obj 467 542 hsl 64 12 0 1000 0 1 empty empty decay 5 6 1 8 -262144
-1 -1 500 1;
#X floatatom 478 563 5 0 0 0 - - -;
#X obj 260 467 nbx 3 14 0 127 0 1 empty empty empty 0 -8 0 8 -262144
-1 -1 80 256;
#X floatatom 260 535 5 0 0 0 - - -;
#X obj 464 438 nbx 3 14 0 42 0 1 empty empty empty 0 -8 0 8 -262144
-1 -1 42 256;
#X obj 413 501 + 0;
#X floatatom 425 522 3 0 0 0 - - -;
#X obj 203 105 mod 1;
#X obj 224 77 + 1;
#X obj 203 125 sel 0;
#X msg 398 435 0, f 2;
#X msg 347 435 2, f 2;
#X obj 252 123 mod 1;
#X obj 279 103 + 1;
#X obj 252 144 sel 0;
#X msg 374 435 4, f 2;
#X obj 155 4 r mtBeats;
#X obj 190 25 spigot;
#X obj 400 651 pack f f f;
#X obj 429 595 t b f;
#X obj 455 624 nbx 2 14 1 16 0 1 empty empty empty 0 -8 0 10 -262144
-1 -1 1 256;
#X obj 400 671 s MIDIhh;
#X obj 23 31 loadbang;
#X msg 23 51 4;
#X obj 260 508 + 10;
#X obj 413 195 r /i/hh/hits;
#X obj 477 233 r /i/hh/len;
#X obj 441 215 r /i/hh/off;
#X obj 515 252 r /i/hh/disp;
#X obj 223 4 r /i/hh/on;
#X text 397 420 closed;
#X text 334 420 pedal;
#X text 370 420 open;
#X obj 279 84 r /i/hh/openNbr;
#X obj 224 57 r /i/hh/pedalNbr;
#X floatatom 140 52 5 0 0 0 - - -;
#X obj 268 170 bng 8 250 50 0 empty empty empty 17 7 0 10 -262144 -1
-1;
#X obj 295 171 bng 8 250 50 0 empty empty empty 17 7 0 10 -262144 -1
-1;
#X obj 198 145 bng 8 250 50 0 empty empty empty 17 7 0 10 -262144 -1
-1;
#X obj 225 146 bng 8 250 50 0 empty empty empty 17 7 0 10 -262144 -1
-1;
#X floatatom 161 125 5 0 0 0 - - -;
#X obj 21 181 cnv 15 104 15 empty empty HI-HAT 5 8 0 14 -45076 -262144
0;
#X obj 307 591 sel 42 44 46;
#X obj 97 188 bng 8 250 50 0 empty trgHhClosed empty 17 7 0 10 -45076
-258113 -1;
#X obj 107 188 bng 8 250 50 0 empty trgHhPedal empty 17 7 0 10 -45076
-257985 -1;
#X obj 117 188 bng 8 250 50 0 empty trgHhOpen empty 17 7 0 10 -45076
-4034 -1;
#X obj 23 91 s /i/hh/pedalNbr;
#X obj 28 71 s /i/hh/openNbr;
#X obj 190 45 s trgHiHat;
#X obj 246 617 s trgHhClosed;
#X obj 271 636 s trgHhPedal;
#X obj 291 655 s trgHhOpen;
#X floatatom 382 202 2 0 0 0 - - -;
#X obj 367 182 mod 1;
#X obj 367 118 r trgHiHat;
#X obj 394 140 r /i/hh/div;
#X floatatom 403 160 3 0 0 0 - - -;
#X obj 439 34 loadbang;
#X msg 439 56 4;
#X obj 439 76 s /i/hh/div;
#X connect 2 0 0 0;
#X connect 2 1 5 0;
#X connect 3 0 2 0;
#X connect 3 1 4 0;
#X connect 4 0 31 1;
#X connect 5 0 9 0;
#X connect 5 0 11 0;
#X connect 6 0 25 0;
#X connect 6 1 26 0;
#X connect 7 0 8 0;
#X connect 7 0 6 2;
#X connect 9 0 31 0;
#X connect 11 0 12 0;
#X connect 12 0 13 0;
#X connect 12 0 6 0;
#X connect 12 0 49 0;
#X connect 14 0 16 0;
#X connect 14 0 47 0;
#X connect 15 0 14 1;
#X connect 16 0 18 0;
#X connect 16 0 45 0;
#X connect 16 1 46 0;
#X connect 17 0 12 1;
#X connect 18 0 12 1;
#X connect 19 0 21 0;
#X connect 20 0 19 1;
#X connect 21 0 22 0;
#X connect 21 0 43 0;
#X connect 21 1 17 0;
#X connect 21 1 44 0;
#X connect 22 0 12 1;
#X connect 23 0 24 0;
#X connect 24 0 19 0;
#X connect 24 0 14 0;
#X connect 24 0 42 0;
#X connect 24 0 55 0;
#X connect 25 0 28 0;
#X connect 26 0 27 0;
#X connect 26 1 25 1;
#X connect 27 0 25 2;
#X connect 29 0 30 0;
#X connect 30 0 53 0;
#X connect 30 0 54 0;
#X connect 31 0 6 1;
#X connect 31 0 10 0;
#X connect 32 0 2 1;
#X connect 32 0 1 0;
#X connect 33 0 2 2;
#X connect 33 0 1 2;
#X connect 34 0 2 3;
#X connect 34 0 1 1;
#X connect 35 0 2 4;
#X connect 35 0 1 3;
#X connect 36 0 24 1;
#X connect 40 0 20 0;
#X connect 41 0 15 0;
#X connect 49 0 56 0;
#X connect 49 1 57 0;
#X connect 49 2 58 0;
#X connect 60 0 59 0;
#X connect 60 0 3 0;
#X connect 61 0 60 0;
#X connect 62 0 60 1;
#X connect 62 0 63 0;
#X connect 64 0 65 0;
#X connect 65 0 66 0;
#X coords 0 -1 1 1 105 16 2 20 180;
#X restore 328 52 pd hihat;
#N canvas 679 54 601 724 snare 0;
#X obj 16 362 s snSeq;
#X obj 29 344 s snBng;
#X obj 16 15 r mtBeats;
#N canvas 251 50 537 684 calcSnSeq 0;
#X obj 243 580 select 1;
#X obj 192 549 < \$1;
#X floatatom 38 31 3 0 0 0 - - -;
#X floatatom 204 580 3 0 0 0 - - -;
#X obj 25 11 inlet currentBeatNumber;
#X obj 199 11 inlet hits;
#X obj 323 635 outlet bangs;
#X obj 195 634 outlet sequence;
#X floatatom 209 30 3 0 0 0 - - -;
#X floatatom 398 70 3 0 0 0 - - -;
#X obj 338 50 inlet offset;
#X obj 283 12 inlet length;
#X floatatom 288 166 3 0 0 0 - - -;
#X obj 288 213 -;
#X floatatom 304 237 3 0 0 0 - - -;
#X obj 338 74 t b f;
#X text 305 580 <-- bang on each hit;
#X obj 155 474 % \$3;
#X obj 154 407 * \$1;
#X obj 154 355 + \$2;
#X floatatom 159 378 3 0 0 0 - - -;
#X floatatom 162 427 3 0 0 0 - - -;
#X floatatom 176 497 3 0 0 0 - - -;
#X obj 25 198 mod;
#X floatatom 41 219 3 0 0 0 - - -;
#X obj 44 252 -;
#X floatatom 56 274 3 0 0 0 - - -;
#X obj 121 91 t f f;
#X obj 153 131 +;
#X floatatom 153 153 3 0 0 0 - - -;
#X obj 44 298 moses 0;
#X obj 403 12 inlet displace;
#X obj 220 88 t b f;
#X floatatom 287 34 3 0 0 0 - - -;
#X floatatom 403 34 3 0 0 0 - - -;
#X msg 44 320 -8;
#X connect 0 0 6 0;
#X connect 1 0 0 0;
#X connect 1 0 3 0;
#X connect 1 0 7 0;
#X connect 4 0 2 0;
#X connect 4 0 23 0;
#X connect 5 0 1 1;
#X connect 5 0 8 0;
#X connect 5 0 18 1;
#X connect 10 0 9 0;
#X connect 10 0 15 0;
#X connect 11 0 12 0;
#X connect 11 0 17 1;
#X connect 11 0 32 0;
#X connect 11 0 33 0;
#X connect 12 0 13 0;
#X connect 13 0 14 0;
#X connect 13 0 19 1;
#X connect 15 0 12 0;
#X connect 15 1 13 1;
#X connect 17 0 22 0;
#X connect 17 0 1 0;
#X connect 18 0 17 0;
#X connect 18 0 21 0;
#X connect 19 0 18 0;
#X connect 19 0 20 0;
#X connect 23 0 24 0;
#X connect 23 0 25 0;
#X connect 25 0 26 0;
#X connect 25 0 30 0;
#X connect 27 0 25 1;
#X connect 27 1 28 0;
#X connect 28 0 23 1;
#X connect 28 0 29 0;
#X connect 30 0 35 0;
#X connect 30 1 19 0;
#X connect 31 0 27 0;
#X connect 31 0 34 0;
#X connect 32 0 28 0;
#X connect 32 1 28 1;
#X connect 35 0 7 0;
#X restore 16 317 pd calcSnSeq;
#N canvas 0 50 455 185 sendSnParams 0;
#X obj 28 76 inlet hits;
#X obj 113 16 inlet offset;
#X obj 211 16 inlet length;
#X obj 264 93 inlet displace;
#X obj 28 126 s getSnareHits;
#X obj 113 94 s getSnareOffset;
#X obj 211 67 s getSnareLength;
#X obj 264 144 s getSnareDisplacement;
#X connect 0 0 4 0;
#X connect 1 0 5 0;
#X connect 2 0 6 0;
#X connect 3 0 7 0;
#X restore 110 317 pd sendSnParams;
#N canvas 121 60 343 487 emphSn 0;
#X floatatom 154 55 3 0 0 0 - - -;
#N canvas 0 50 537 684 calcHhDyn 0;
#X obj 243 580 select 1;
#X obj 192 549 < \$1;
#X floatatom 38 31 3 0 0 0 - - -;
#X floatatom 204 580 3 0 0 0 - - -;
#X obj 25 11 inlet currentBeatNumber;
#X obj 199 11 inlet hits;
#X obj 323 635 outlet bangs;
#X obj 195 634 outlet sequence;
#X floatatom 209 30 3 0 0 0 - - -;
#X floatatom 398 79 3 0 0 0 - - -;
#X obj 338 59 inlet offset;
#X obj 283 12 inlet length;
#X floatatom 288 166 3 0 0 0 - - -;
#X obj 288 213 -;
#X floatatom 304 237 3 0 0 0 - - -;
#X obj 338 83 t b f;
#X obj 155 474 % \$3;
#X obj 139 414 * \$1;
#X obj 139 362 + \$2;
#X floatatom 144 385 3 0 0 0 - - -;
#X floatatom 147 434 3 0 0 0 - - -;
#X floatatom 176 497 3 0 0 0 - - -;
#X obj 25 198 mod;
#X floatatom 41 219 3 0 0 0 - - -;
#X obj 40 253 -;
#X floatatom 50 277 3 0 0 0 - - -;
#X obj 121 91 t f f;
#X obj 153 131 +;
#X floatatom 153 153 3 0 0 0 - - -;
#X obj 403 12 inlet displace;
#X obj 220 88 t b f;
#X floatatom 292 32 3 0 0 0 - - -;
#X floatatom 403 34 3 0 0 0 - - -;
#X obj 40 311 moses 0;
#X text 305 580 <-- bang every hit;
#X msg 40 333 -8;
#X connect 0 0 6 0;
#X connect 1 0 0 0;
#X connect 1 0 3 0;
#X connect 1 0 7 0;
#X connect 4 0 2 0;
#X connect 4 0 22 0;
#X connect 5 0 1 1;
#X connect 5 0 8 0;
#X connect 5 0 17 1;
#X connect 10 0 9 0;
#X connect 10 0 15 0;
#X connect 11 0 12 0;
#X connect 11 0 16 1;
#X connect 11 0 31 0;
#X connect 11 0 30 0;
#X connect 12 0 13 0;
#X connect 13 0 14 0;
#X connect 13 0 18 1;
#X connect 15 0 12 0;
#X connect 15 1 13 1;
#X connect 16 0 21 0;
#X connect 16 0 1 0;
#X connect 17 0 16 0;
#X connect 17 0 20 0;
#X connect 18 0 17 0;
#X connect 18 0 19 0;
#X connect 22 0 23 0;
#X connect 22 0 24 0;
#X connect 24 0 25 0;
#X connect 24 0 33 0;
#X connect 26 0 24 1;
#X connect 26 1 27 0;
#X connect 27 0 22 1;
#X connect 27 0 28 0;
#X connect 29 0 26 0;
#X connect 29 0 32 0;
#X connect 30 0 27 0;
#X connect 30 1 27 1;
#X connect 33 0 35 0;
#X connect 33 1 18 0;
#X connect 35 0 7 0;
#X restore 37 220 pd calcHhDyn;
#X obj 56 85 hradio 8 1 0 15 empty empty accents 0 -8 0 10 -262144
-1 -1 9;
#X obj 59 136 hradio 8 1 0 8 empty empty acc_off 0 -8 0 10 -262144
-1 -1 0;
#X obj 57 110 hradio 8 1 0 16 empty empty acc_len 0 -8 0 10 -262144
-1 -1 16;
#X floatatom 188 104 3 0 0 0 - - -;
#X floatatom 180 79 3 0 0 0 - - -;
#X floatatom 127 130 3 0 0 0 - - -;
#X obj 71 325 outlet;
#X obj 37 20 inlet beats;
#X obj 142 28 r snAcc;
#X obj 227 28 r snAccLen;
#X obj 228 69 r snAccOff;
#X obj 69 273 + 0.3;
#X obj 69 251 * 0.1;
#X connect 1 0 14 0;
#X connect 2 0 1 1;
#X connect 2 0 6 0;
#X connect 3 0 1 3;
#X connect 3 0 7 0;
#X connect 4 0 1 2;
#X connect 4 0 5 0;
#X connect 9 0 1 0;
#X connect 10 0 2 0;
#X connect 11 0 4 0;
#X connect 12 0 3 0;
#X connect 13 0 0 0;
#X connect 13 0 8 0;
#X connect 14 0 13 0;
#X coords 0 -1 1 1 170 100 1 50 50;
#X restore 275 297 pd emphSn;
#X obj 16 175 t f f, f 10;
#X obj 85 345 bng 8 250 50 0 empty empty empty 17 7 0 10 -262144 -1
-1;
#X msg 139 415 40, f 2;
#X obj 139 521 makenote;
#X obj 295 509 hsl 64 12 0 1000 0 1 empty empty decay 5 6 1 8 -262144
-1 -1 200 1;
#X floatatom 291 530 5 0 0 0 - - -;
#X obj 52 36 spigot;
#X obj 140 629 pack f f f;
#X obj 185 565 t b f;
#X obj 140 649 s MIDIsn;
#X floatatom 57 103 5 0 0 0 - - -;
#X obj 57 122 select 0;
#X obj 88 148 bng 15 250 50 0 empty empty empty 17 7 0 10 -262144 -1
-1;
#X obj 214 203 bng 8 250 50 0 empty empty empty 17 7 0 10 -262144 -1
-1;
#X obj 140 138 + 1;
#X obj 116 147 bng 15 250 50 0 empty empty empty 17 7 0 10 -262144
-1 -1;
#X obj 57 77 mod 2;
#X obj 103 170 timer;
#X obj 200 185 delay 0.25;
#X obj 125 195 / 2;
#X obj 200 163 spigot;
#X obj 161 415 nbx 3 14 90 120 1 1 empty empty vel 0 -6 0 8 -262144
-1 -1 100 256;
#X obj 161 464 - 0;
#X obj 139 369 t b b;
#X obj 176 369 t b b;
#X obj 286 404 bng 8 250 50 0 empty empty empty 17 7 0 10 -262144 -1
-1;
#X obj 363 51 bng 8 250 50 0 empty empty empty 17 7 0 10 -262144 -1
-1;
#X obj 363 93 hradio 12 1 0 3 /i/sn/ghost /i/sn/ghost Ghost 0 -6 0
8 -262144 -1 -1 0;
#X obj 199 402 nbx 3 14 1.2 120 1 1 /i/sn/ghostVel /i/sn/ghostVel ghostVel
0 -6 0 8 -262144 -1 -1 55.5171 256;
#X obj 25 206 r /i/sn/hits;
#X obj 86 246 r /i/sn/len;
#X obj 56 226 r /i/sn/off;
#X obj 129 267 r /i/sn/disp;
#X obj 201 138 r /i/sn/ghostOn;
#X obj 140 117 r /i/sn/ghost;
#X obj 84 56 r /i/sn/ghostFact;
#X obj 175 494 r /i/sn/ghostVel;
#X obj 208 605 nbx 2 14 1 16 0 1 empty empty chan 0 -6 0 8 -262144
-1 -1 1 256;
#X obj 85 15 r /i/sn/on;
#X obj 271 161 cnv 15 104 15 empty empty SNARE 5 8 0 14 -45076 -262144
0;
#X obj 367 168 bng 8 250 50 0 empty trgSnare empty 17 7 0 10 -45076
-232576 -1;
#X obj 72 455 s trgSnare;
#X connect 2 0 12 0;
#X connect 3 0 0 0;
#X connect 3 1 1 0;
#X connect 3 1 7 0;
#X connect 3 1 26 0;
#X connect 3 1 29 0;
#X connect 5 0 28 1;
#X connect 5 0 31 0;
#X connect 6 0 3 0;
#X connect 6 1 5 0;
#X connect 8 0 9 0;
#X connect 8 0 47 0;
#X connect 9 0 13 0;
#X connect 9 1 14 0;
#X connect 10 0 11 0;
#X connect 10 0 9 2;
#X connect 12 0 6 0;
#X connect 12 0 22 0;
#X connect 12 0 32 0;
#X connect 13 0 15 0;
#X connect 14 0 43 0;
#X connect 14 1 13 1;
#X connect 16 0 17 0;
#X connect 17 0 18 0;
#X connect 17 1 21 0;
#X connect 18 0 23 0;
#X connect 20 0 25 1;
#X connect 21 0 23 1;
#X connect 22 0 16 0;
#X connect 23 0 25 0;
#X connect 24 0 19 0;
#X connect 24 0 30 0;
#X connect 25 0 24 1;
#X connect 26 0 24 0;
#X connect 27 0 28 0;
#X connect 28 0 9 1;
#X connect 29 0 8 0;
#X connect 29 1 27 0;
#X connect 30 0 8 0;
#X connect 30 1 34 0;
#X connect 32 0 33 0;
#X connect 35 0 3 1;
#X connect 35 0 4 0;
#X connect 36 0 3 2;
#X connect 36 0 4 2;
#X connect 37 0 3 3;
#X connect 37 0 4 1;
#X connect 38 0 3 4;
#X connect 38 0 4 3;
#X connect 39 0 26 1;
#X connect 40 0 20 0;
#X connect 41 0 22 1;
#X connect 42 0 9 1;
#X connect 43 0 13 2;
#X connect 44 0 12 1;
#X coords 0 -1 1 1 105 16 2 270 160;
#X restore 328 33 pd snare;
#N canvas 364 32 537 718 kick 0;
#X obj 17 322 s euSeq;
#N canvas 744 39 475 684 calcKkSeq 0;
#X obj 243 545 select 1;
#X obj 192 514 < \$1;
#X floatatom 38 31 3 0 0 0 - - -;
#X floatatom 204 545 3 0 0 0 - - -;
#X obj 25 11 inlet currentBeatNumber;
#X obj 199 11 inlet hits;
#X obj 323 587 outlet bangs;
#X obj 195 586 outlet sequence;
#X floatatom 209 30 3 0 0 0 - - -;
#X floatatom 385 109 3 0 0 0 - - -;
#X obj 325 89 inlet offset;
#X obj 283 12 inlet length;
#X floatatom 288 166 3 0 0 0 - - -;
#X obj 288 213 -;
#X floatatom 304 237 3 0 0 0 - - -;
#X obj 325 113 t b f;
#X obj 164 450 % \$3;
#X obj 150 386 * \$1;
#X obj 150 334 + \$2;
#X floatatom 155 357 3 0 0 0 - - -;
#X floatatom 160 406 3 0 0 0 - - -;
#X floatatom 179 470 3 0 0 0 - - -;
#X obj 25 190 mod;
#X floatatom 41 211 3 0 0 0 - - -;
#X obj 44 244 -;
#X floatatom 56 266 3 0 0 0 - - -;
#X obj 126 117 t f f;
#X obj 153 157 +;
#X floatatom 153 179 3 0 0 0 - - -;
#X obj 44 290 moses 0;
#X obj 371 12 inlet displace;
#X obj 220 96 t b f;
#X floatatom 374 32 3 0 0 0 - - -;
#X floatatom 291 34 3 0 0 0 - - -;
#X text 305 545 <-- bang every hit;
#X msg 44 312 -8;
#X text 7 324 was this done for Orooga?;
#X connect 0 0 6 0;
#X connect 1 0 0 0;
#X connect 1 0 3 0;
#X connect 1 0 7 0;
#X connect 4 0 2 0;
#X connect 4 0 22 0;
#X connect 5 0 1 1;
#X connect 5 0 8 0;
#X connect 5 0 17 1;
#X connect 10 0 9 0;
#X connect 10 0 15 0;
#X connect 11 0 12 0;
#X connect 11 0 16 1;
#X connect 11 0 31 0;
#X connect 11 0 33 0;
#X connect 12 0 13 0;
#X connect 13 0 14 0;
#X connect 13 0 18 1;
#X connect 15 0 12 0;
#X connect 15 1 13 1;
#X connect 16 0 21 0;
#X connect 16 0 1 0;
#X connect 17 0 16 0;
#X connect 17 0 20 0;
#X connect 18 0 17 0;
#X connect 18 0 19 0;
#X connect 22 0 23 0;
#X connect 22 0 24 0;
#X connect 24 0 25 0;
#X connect 24 0 29 0;
#X connect 26 0 24 1;
#X connect 26 1 27 0;
#X connect 27 0 22 1;
#X connect 27 0 28 0;
#X connect 29 0 35 0;
#X connect 29 1 18 0;
#X connect 30 0 26 0;
#X connect 30 0 32 0;
#X connect 31 0 27 0;
#X connect 31 1 27 1;
#X connect 35 0 7 0;
#X restore 17 297 pd calcKkSeq;
#N canvas 0 50 455 185 sendKkParams 0;
#X obj 211 67 s getKickLength;
#X obj 113 94 s getKickOffset;
#X obj 28 126 s getKickHits;
#X obj 28 76 inlet hits;
#X obj 113 16 inlet offset;
#X obj 211 16 inlet length;
#X obj 264 93 inlet displace;
#X obj 264 144 s getKickDisplacement;
#X connect 3 0 2 0;
#X connect 4 0 1 0;
#X connect 5 0 0 0;
#X connect 6 0 7 0;
#X restore 101 297 pd sendKkParams;
#N canvas 121 60 343 487 emphKk 0;
#N canvas 0 50 537 684 calcHhDyn 0;
#X obj 243 580 select 1;
#X obj 192 549 < \$1;
#X floatatom 38 31 3 0 0 0 - - -;
#X floatatom 204 580 3 0 0 0 - - -;
#X obj 25 11 inlet currentBeatNumber;
#X obj 199 11 inlet hits;
#X obj 323 635 outlet bangs;
#X obj 195 634 outlet sequence;
#X floatatom 209 30 3 0 0 0 - - -;
#X floatatom 398 79 3 0 0 0 - - -;
#X obj 338 59 inlet offset;
#X obj 283 12 inlet length;
#X floatatom 288 166 3 0 0 0 - - -;
#X obj 288 213 -;
#X floatatom 304 237 3 0 0 0 - - -;
#X obj 338 83 t b f;
#X obj 155 474 % \$3;
#X obj 139 414 * \$1;
#X obj 139 362 + \$2;
#X floatatom 144 385 3 0 0 0 - - -;
#X floatatom 147 434 3 0 0 0 - - -;
#X floatatom 176 497 3 0 0 0 - - -;
#X obj 25 198 mod;
#X floatatom 41 219 3 0 0 0 - - -;
#X obj 40 253 -;
#X floatatom 50 277 3 0 0 0 - - -;
#X obj 121 91 t f f;
#X obj 153 131 +;
#X floatatom 153 153 3 0 0 0 - - -;
#X obj 403 12 inlet displace;
#X obj 220 88 t b f;
#X floatatom 292 32 3 0 0 0 - - -;
#X floatatom 403 34 3 0 0 0 - - -;
#X obj 40 311 moses 0;
#X text 305 580 <-- bang every hit;
#X msg 40 333 -8;
#X connect 0 0 6 0;
#X connect 1 0 0 0;
#X connect 1 0 3 0;
#X connect 1 0 7 0;
#X connect 4 0 2 0;
#X connect 4 0 22 0;
#X connect 5 0 1 1;
#X connect 5 0 8 0;
#X connect 5 0 17 1;
#X connect 10 0 9 0;
#X connect 10 0 15 0;
#X connect 11 0 12 0;
#X connect 11 0 16 1;
#X connect 11 0 31 0;
#X connect 11 0 30 0;
#X connect 12 0 13 0;
#X connect 13 0 14 0;
#X connect 13 0 18 1;
#X connect 15 0 12 0;
#X connect 15 1 13 1;
#X connect 16 0 21 0;
#X connect 16 0 1 0;
#X connect 17 0 16 0;
#X connect 17 0 20 0;
#X connect 18 0 17 0;
#X connect 18 0 19 0;
#X connect 22 0 23 0;
#X connect 22 0 24 0;
#X connect 24 0 25 0;
#X connect 24 0 33 0;
#X connect 26 0 24 1;
#X connect 26 1 27 0;
#X connect 27 0 22 1;
#X connect 27 0 28 0;
#X connect 29 0 26 0;
#X connect 29 0 32 0;
#X connect 30 0 27 0;
#X connect 30 1 27 1;
#X connect 33 0 35 0;
#X connect 33 1 18 0;
#X connect 35 0 7 0;
#X restore 37 220 pd calcHhDyn;
#X obj 56 85 hradio 8 1 0 15 empty empty accents 0 -8 0 10 -262144
-1 -1 0;
#X obj 59 136 hradio 8 1 0 8 empty empty acc_off 0 -8 0 10 -262144
-1 -1 0;
#X obj 57 110 hradio 8 1 0 16 empty empty acc_len 0 -8 0 10 -262144
-1 -1 0;
#X floatatom 188 104 3 0 0 0 - - -;
#X floatatom 180 79 3 0 0 0 - - -;
#X floatatom 127 130 3 0 0 0 - - -;
#X obj 71 325 outlet;
#X obj 37 20 inlet beats;
#X floatatom 155 56 3 0 0 0 - - -;
#X obj 142 28 r kkAcc;
#X obj 227 28 r kkAccLen;
#X obj 228 68 r kkAccOff;
#X obj 100 279 * 50;
#X obj 160 130 nbx 3 14 0 127 0 1 empty empty empty 0 -8 0 10 -262144
-1 -1 7 256;
#X connect 0 0 13 0;
#X connect 1 0 0 1;
#X connect 1 0 5 0;
#X connect 2 0 0 3;
#X connect 2 0 6 0;
#X connect 3 0 0 2;
#X connect 3 0 4 0;
#X connect 8 0 0 0;
#X connect 10 0 1 0;
#X connect 11 0 3 0;
#X connect 12 0 2 0;
#X connect 13 0 9 0;
#X connect 13 0 7 0;
#X connect 14 0 13 1;
#X coords 0 -1 1 1 170 100 1 50 50;
#X restore 286 299 pd emphKk;
#X obj 17 173 t f f, f 12;
#X obj 307 434 bng 8 250 50 0 empty empty empty 17 7 0 10 -262144 -1
-1;
#X obj 113 429 nbx 3 14 90 120 1 1 empty empty vel 0 -6 0 8 -262144
-1 -1 120 256;
#X obj 137 459 - 0;
#X obj 364 45 bng 8 250 50 0 empty empty empty 17 7 0 10 -262144 -1
-1;
#X obj 398 18 hradio 12 1 0 3 /i/kk/ghost /i/kk/ghost Ghost 0 -6 0
8 -262144 -1 -1 0;
#X obj 58 109 select 0;
#X obj 167 411 nbx 3 14 1.2 120 1 1 /i/kk/ghostVel /i/kk/ghostVel ghostVel
0 -6 0 8 -262144 -1 -1 60.742 256;
#X obj 157 111 + 1;
#X obj 58 79 mod 2;
#X obj 94 139 timer;
#X obj 186 352 delay 0.25;
#X obj 142 182 / 2;
#X obj 186 331 spigot;
#X obj 15 5 r mtBeats;
#X obj 58 30 spigot;
#X obj 88 629 pack f f f;
#X obj 88 649 s MIDIkk;
#X obj 133 551 t b f;
#X obj 152 604 nbx 2 14 1 16 0 1 empty empty chan 0 -6 0 8 -262144
-1 -1 1 256;
#X msg 86 429 36, f 2;
#X obj 86 377 t b b;
#X obj 91 5 r /i/kk/on;
#X obj 157 89 r /i/kk/ghost;
#X obj 85 57 r /i/kk/ghostFact;
#X obj 141 484 r /i/kk/ghostVel;
#X obj 219 138 r /i/kk/ghostOn;
#X obj 34 212 r /i/kk/hits;
#X obj 68 248 r /i/kk/off;
#X obj 51 230 r /i/kk/len;
#X obj 86 266 r /i/kk/disp;
#X obj 140 378 t b b;
#X obj 270 5 cnv 15 104 15 empty empty KICK 5 8 0 14 -45076 -262144
0;
#X obj 366 12 bng 8 250 50 0 empty trgKick empty 17 7 0 10 -45076 -232576
-1;
#X obj 22 466 s trgKick;
#X obj 364 58 s /i/kk/ghost;
#X obj 276 508 nbx 5 14 -1e+37 1e+37 0 0 empty empty empty 0 -8 0 10
-262144 -1 -1 75 256;
#X obj 256 486 r /g/duration_32nd;
#X obj 88 518 makenote 100 50;
#X text 183 520 duration should be constant for percussion events \,
like 50ms?;
#X connect 1 0 0 0;
#X connect 1 1 17 0;
#X connect 1 1 25 0;
#X connect 3 0 5 0;
#X connect 3 0 7 1;
#X connect 4 0 1 0;
#X connect 4 1 3 0;
#X connect 6 0 7 0;
#X connect 7 0 42 1;
#X connect 8 0 39 0;
#X connect 10 0 14 0;
#X connect 10 1 14 1;
#X connect 12 0 16 1;
#X connect 13 0 10 0;
#X connect 14 0 16 0;
#X connect 15 0 35 0;
#X connect 16 0 15 1;
#X connect 17 0 15 0;
#X connect 18 0 19 0;
#X connect 19 0 4 0;
#X connect 19 0 8 0;
#X connect 19 0 13 0;
#X connect 20 0 21 0;
#X connect 22 0 23 0;
#X connect 22 1 20 1;
#X connect 23 0 20 2;
#X connect 24 0 38 0;
#X connect 24 0 42 0;
#X connect 25 0 24 0;
#X connect 25 1 6 0;
#X connect 26 0 19 1;
#X connect 27 0 12 0;
#X connect 28 0 13 1;
#X connect 29 0 42 1;
#X connect 30 0 17 1;
#X connect 31 0 1 1;
#X connect 32 0 1 3;
#X connect 33 0 1 2;
#X connect 34 0 1 4;
#X connect 35 0 24 0;
#X connect 35 1 11 0;
#X connect 41 0 40 0;
#X connect 42 0 20 0;
#X connect 42 1 22 0;
#X coords 0 -1 1 1 105 16 1 270 5;
#X restore 328 14 pd kick;
#N canvas 689 324 438 357 midiHUB 0;
#N canvas 434 122 253 263 MIDIoutBASS 0;
#X obj 57 202 noteout;
#X obj 84 49 unpack f f f;
#X floatatom 54 113 2 0 0 0 - - -;
#X floatatom 96 113 3 0 0 0 - - -;
#X floatatom 72 113 3 0 0 0 - - -;
#X obj 166 144 outlet vel;
#X obj 84 26 r MIDIbass;
#X connect 1 0 2 0;
#X connect 1 0 0 0;
#X connect 1 1 4 0;
#X connect 1 1 0 1;
#X connect 1 1 5 0;
#X connect 1 2 3 0;
#X connect 1 2 0 2;
#X connect 6 0 1 0;
#X coords 0 -1 1 1 70 30 1 50 100;
#X restore 48 70 pd MIDIoutBASS;
#N canvas 434 122 253 263 MIDIoutPAD 0;
#X obj 79 167 noteout;
#X obj 84 49 unpack f f f;
#X floatatom 54 113 2 0 0 0 - - -;
#X floatatom 96 113 3 0 0 0 - - -;
#X floatatom 72 113 3 0 0 0 - - -;
#X obj 84 26 r MIDIpad;
#X obj 150 144 outlet chan;
#X connect 1 0 2 0;
#X connect 1 0 0 0;
#X connect 1 1 4 0;
#X connect 1 1 0 1;
#X connect 1 2 3 0;
#X connect 1 2 0 2;
#X connect 1 2 6 0;
#X connect 5 0 1 0;
#X coords 0 -1 1 1 70 30 1 50 100;
#X restore 142 70 pd MIDIoutPAD;
#N canvas 425 36 253 263 MIDIoutMEL 0;
#X obj 72 154 noteout;
#X obj 47 47 unpack f f f;
#X floatatom 54 113 2 0 0 0 - - -;
#X floatatom 96 113 3 0 0 0 - - -;
#X floatatom 72 113 3 0 0 0 - - -;
#X obj 47 24 r MIDImel;
#X obj 47 176 outlet note;
#X connect 1 0 2 0;
#X connect 1 0 0 0;
#X connect 1 0 6 0;
#X connect 1 1 4 0;
#X connect 1 1 0 1;
#X connect 1 2 3 0;
#X connect 1 2 0 2;
#X connect 5 0 1 0;
#X coords 0 -1 1 1 70 30 1 50 100;
#X restore 229 70 pd MIDIoutMEL;
#N canvas 434 122 253 263 MIDIoutPERC 0;
#X obj 79 167 noteout;
#X obj 84 49 unpack f f f;
#X floatatom 54 113 2 0 0 0 - - -;
#X floatatom 96 113 3 0 0 0 - - -;
#X floatatom 72 113 3 0 0 0 - - -;
#X obj 84 26 r MIDIperc;
#X obj 146 177 outlet chan;
#X connect 1 0 2 0;
#X connect 1 0 0 0;
#X connect 1 1 4 0;
#X connect 1 1 0 1;
#X connect 1 2 3 0;
#X connect 1 2 0 2;
#X connect 1 2 6 0;
#X connect 5 0 1 0;
#X coords 0 -1 1 1 70 30 1 50 100;
#X restore 295 9 pd MIDIoutPERC;
#N canvas 434 122 253 263 MIDIoutKK 0;
#X obj 79 167 noteout;
#X obj 84 49 unpack f f f;
#X floatatom 54 113 2 0 0 0 - - -;
#X floatatom 96 113 3 0 0 0 - - -;
#X floatatom 72 113 3 0 0 0 - - -;
#X obj 150 144 outlet chan;
#X obj 84 27 r MIDIkk;
#X connect 1 0 2 0;
#X connect 1 0 0 0;
#X connect 1 1 4 0;
#X connect 1 1 0 1;
#X connect 1 2 3 0;
#X connect 1 2 0 2;
#X connect 1 2 5 0;
#X connect 6 0 1 0;
#X coords 0 -1 1 1 70 30 1 50 100;
#X restore 49 9 pd MIDIoutKK;
#N canvas 434 122 253 263 MIDIoutSN 0;
#X obj 79 167 noteout;
#X obj 84 49 unpack f f f;
#X floatatom 54 113 2 0 0 0 - - -;
#X floatatom 96 113 3 0 0 0 - - -;
#X floatatom 72 113 3 0 0 0 - - -;
#X obj 150 144 outlet chan;
#X obj 84 27 r MIDIsn;
#X connect 1 0 2 0;
#X connect 1 0 0 0;
#X connect 1 1 4 0;
#X connect 1 1 0 1;
#X connect 1 2 3 0;
#X connect 1 2 0 2;
#X connect 1 2 5 0;
#X connect 6 0 1 0;
#X coords 0 -1 1 1 70 30 1 50 100;
#X restore 131 9 pd MIDIoutSN;
#N canvas 434 122 253 263 MIDIoutHH 0;
#X obj 79 167 noteout;
#X obj 84 49 unpack f f f;
#X floatatom 54 113 2 0 0 0 - - -;
#X floatatom 96 113 3 0 0 0 - - -;
#X floatatom 72 113 3 0 0 0 - - -;
#X obj 150 144 outlet chan;
#X obj 84 26 r MIDIhh;
#X connect 1 0 2 0;
#X connect 1 0 0 0;
#X connect 1 1 4 0;
#X connect 1 1 0 1;
#X connect 1 2 3 0;
#X connect 1 2 0 2;
#X connect 1 2 5 0;
#X connect 6 0 1 0;
#X coords 0 -1 1 1 70 30 1 50 100;
#X restore 213 9 pd MIDIoutHH;
#X obj 295 44 s MIDIout01;
#X obj 213 44 s MIDIout01;
#X obj 131 44 s MIDIout01;
#X obj 49 44 s MIDIout01;
#X obj 48 105 s MIDIout02;
#X obj 229 105 s MIDIout04;
#X obj 142 105 s MIDIout03;
#X connect 0 0 11 0;
#X connect 1 0 13 0;
#X connect 2 0 12 0;
#X connect 3 0 7 0;
#X connect 4 0 10 0;
#X connect 5 0 9 0;
#X connect 6 0 8 0;
#X coords 0 357 1 356 42 39 0;
#X restore 120 104 pd midiHUB;
#N canvas 920 150 375 636 BASSplayer 0;
#X obj 48 20 r mtBeats;
#X obj 48 247 spigot;
#X obj 52 266 bng 8 250 50 0 empty empty empty 17 7 0 10 -262144 -1
-1;
#X obj 165 94 loadbang;
#N canvas 158 314 501 430 playPattern 0;
#X floatatom 273 91 5 0 0 0 - - -;
#X floatatom 147 90 3 0 0 0 - - -;
#X obj 164 230 makenote;
#X obj 107 188 spigot;
#X obj 252 125 loadbang;
#X obj 23 16 inlet onOff;
#X obj 134 17 inlet trigger;
#X obj 232 17 inlet mode;
#X obj 309 17 inlet channel;
#X obj 404 16 inlet root;
#X obj 164 350 outlet note;
#X obj 209 331 outlet vel;
#X obj 266 309 outlet chan;
#X obj 98 119 diatonic-scale2;
#X obj 133 71 tabread /g/t/notes_A;
#X obj 262 71 tabread /g/t/pattern_A;
#X obj 164 267 t f b;
#X msg 88 214 36;
#X obj 297 263 nbx 5 14 -1e+37 1e+37 0 0 empty empty empty 0 -8 0 10
-262144 -1 -1 2 256;
#X msg 204 161 110;
#X connect 2 0 16 0;
#X connect 2 1 11 0;
#X connect 3 0 2 0;
#X connect 4 0 19 0;
#X connect 6 0 14 0;
#X connect 6 0 15 0;
#X connect 7 0 13 2;
#X connect 8 0 18 0;
#X connect 9 0 13 1;
#X connect 13 0 3 0;
#X connect 14 0 1 0;
#X connect 14 0 13 0;
#X connect 15 0 0 0;
#X connect 15 0 3 1;
#X connect 15 0 2 2;
#X connect 16 0 10 0;
#X connect 16 1 18 0;
#X connect 17 0 2 0;
#X connect 18 0 12 0;
#X connect 19 0 2 1;
#X restore 125 527 pd playPattern;
#N canvas 186 143 450 411 trgPatt 0;
#X obj 47 138 + 1;
#X floatatom 47 158 5 0 0 0 - - -;
#X obj 85 137 i;
#X msg 100 115 0;
#X obj 47 177 mod 8;
#X floatatom 6 197 5 0 0 0 - - -;
#X obj 100 94 sel 0;
#X msg 144 131 4;
#X msg 148 150 8;
#X msg 152 169 16;
#X obj 192 65 sel 0 1 2;
#X obj 47 46 inlet beat;
#X obj 38 363 outlet read;
#X obj 265 105 bng 10 250 50 0 empty empty empty 17 7 0 10 -262144
-1 -1;
#X obj 192 43 inlet length;
#X obj 211 273 + 0;
#X obj 243 212 r /i/bass/pattStart;
#X obj 244 193 hradio 10 1 0 8 /i/bass/pattStart /i/bass/pattStart
pattStart 0 -6 0 8 -262144 -1 -1 4;
#X floatatom 235 293 5 0 0 0 - - -;
#X obj 259 315 nbx 5 14 -1e+37 1e+37 0 0 empty empty empty 0 -8 0 10
-262144 -1 -1 0 256;
#X floatatom 227 369 5 0 0 0 - - -;
#X obj 209 336 wrap;
#X msg 286 244 \$1;
#X text 297 268 implement patt start - end;
#X connect 0 0 1 0;
#X connect 0 0 2 1;
#X connect 1 0 4 0;
#X connect 2 0 0 0;
#X connect 3 0 2 1;
#X connect 4 0 5 0;
#X connect 4 0 6 0;
#X connect 4 0 12 0;
#X connect 6 0 3 0;
#X connect 7 0 4 1;
#X connect 8 0 4 1;
#X connect 9 0 4 1;
#X connect 10 0 7 0;
#X connect 10 1 8 0;
#X connect 10 2 9 0;
#X connect 11 0 0 0;
#X connect 11 0 13 0;
#X connect 14 0 10 0;
#X connect 15 0 18 0;
#X connect 15 0 21 0;
#X connect 16 0 15 1;
#X connect 16 0 22 0;
#X connect 21 0 20 0;
#X connect 22 0 19 0;
#X coords 0 -1 1 1 85 20 1 200 100;
#X restore 203 389 pd trgPatt;
#X obj 137 555 pack f f f;
#X obj 193 466 * 12;
#X obj 193 486 + 36;
#X obj 54 400 t f f;
#X obj 137 579 s MIDIbass;
#X obj 106 237 sel 0 1 2;
#X msg 106 257 1, f 1;
#X msg 123 257 2, f 1;
#X msg 140 257 4, f 1;
#X obj 91 319 int;
#X obj 91 343 change;
#X obj 91 293 / 1;
#X obj 54 375 r /i/bass/on;
#X obj 200 360 r /i/bass/pattLen;
#X obj 106 217 r /i/bass/duration;
#X obj 193 444 r /i/bass/oct;
#X obj 143 423 r /i/bass/chan;
#X obj 103 400 r /i/bass/mode;
#N canvas 1072 370 589 379 shuffBASS 0;
#X obj 47 138 + 1;
#X floatatom 47 158 5 0 0 0 - - -;
#X obj 85 137 i;
#X msg 100 115 0;
#X obj 47 177 mod 8;
#X floatatom 56 210 3 0 0 0 - - -;
#X obj 100 94 sel 0;
#X msg 163 150 4;
#X msg 167 169 8;
#X obj 192 65 sel 0 1 2 3 4 5;
#X msg 173 189 16;
#X msg 179 212 32;
#X obj 98 220 sel 0;
#X obj 396 312 outlet modeOut;
#X obj 116 323 sel 0;
#X obj 116 301 mod 4;
#X obj 83 267 i 1;
#X msg 116 240 0, f 1;
#X obj 125 342 bng 10 250 50 0 empty empty empty 17 7 0 10 -262144
-1 -1;
#X floatatom 158 323 5 0 0 0 - - -;
#X msg 98 240 0, f 1;
#X floatatom 47 295 3 0 0 0 - - -;
#X obj 311 132 tgl 10 0 empty empty empty 17 7 0 10 -262144 -1 -1 0
1;
#X obj 396 263 spigot;
#X obj 311 206 t b f;
#X floatatom 408 285 2 0 0 0 - - -;
#X msg 311 226 0, f 2;
#X msg 159 131 0;
#X obj 47 268 + 0;
#X obj 47 52 change;
#X obj 47 32 div 2;
#N canvas 988 256 450 434 UmAcomeAlobaBASS 0;
#X obj 39 46 bng 15 250 50 0 empty empty shuff -8 -7 0 10 -262144 -1
-1;
#N canvas 272 301 450 300 reShuffle 0;
#X msg 72 93 1;
#X obj 71 184 + 1;
#X floatatom 71 204 5 0 0 0 - - -;
#X obj 109 183 i;
#X msg 148 119 0;
#X floatatom 71 243 5 0 0 0 - - -;
#X obj 157 212 sel 0;
#X msg 103 117 0;
#X obj 69 141 metro 50;
#X obj 38 27 inlet newPatt;
#X obj 71 262 outlet value;
#X obj 71 223 mod 32;
#X connect 0 0 8 0;
#X connect 1 0 2 0;
#X connect 1 0 3 1;
#X connect 2 0 11 0;
#X connect 3 0 1 0;
#X connect 4 0 3 1;
#X connect 4 0 7 0;
#X connect 5 0 6 0;
#X connect 5 0 10 0;
#X connect 6 0 4 0;
#X connect 7 0 8 0;
#X connect 8 0 3 0;
#X connect 9 0 0 0;
#X connect 11 0 5 0;
#X restore 82 66 pd reShuffle;
#N canvas 0 23 450 278 (subpatch) 0;
#X array pattern_BASS 32 float 3;
#A 0 5 4 2 3 4 5 1 5 3 0 0 3 3 2 4 3 1 2 2 0 2 2 4 2 2 3 4 3 4 5 2
3;
#X coords 0 0 32 5 200 140 1 0 0;
#X restore 229 220 graph;
#X obj 46 152 bng 10 250 50 0 empty empty empty 17 7 0 8 -262144 -1
-1;
#X obj 73 364 t b f;
#X floatatom 115 394 3 0 0 1 th_note - -;
#X obj 46 239 random 8;
#X msg 22 301 0, f 2;
#X msg 51 301 1, f 2;
#X msg 80 301 2, f 2;
#X msg 109 301 3, f 2;
#X msg 133 301 4, f 2;
#X msg 158 302 5, f 2;
#X obj 292 38 inlet readPos;
#X obj 292 78 outlet modeOut;
#X floatatom 232 71 5 0 0 0 - - -;
#X obj 299 57 tabread pattern_BASS;
#X obj 99 33 inlet shuffleBASS;
#X obj 100 97 tabwrite pattern_BASS;
#X obj 46 260 sel 0 1 2 3 4 5 6;
#X msg 181 302 6, f 2;
#X connect 0 0 1 0;
#X connect 1 0 3 0;
#X connect 1 0 18 1;
#X connect 3 0 6 0;
#X connect 4 1 5 0;
#X connect 4 1 18 0;
#X connect 6 0 19 0;
#X connect 7 0 4 0;
#X connect 8 0 4 0;
#X connect 9 0 4 0;
#X connect 10 0 4 0;
#X connect 11 0 4 0;
#X connect 12 0 4 0;
#X connect 13 0 15 0;
#X connect 13 0 16 0;
#X connect 16 0 14 0;
#X connect 17 0 1 0;
#X connect 19 0 7 0;
#X connect 19 1 8 0;
#X connect 19 2 9 0;
#X connect 19 3 10 0;
#X connect 19 4 11 0;
#X connect 19 5 12 0;
#X connect 19 6 20 0;
#X restore 396 113 pd UmAcomeAlobaBASS;
#X obj 191 21 r /i/bass/shfLen;
#X obj 311 47 r /i/bass/shfOn;
#X obj 396 71 r /i/bass/shfReshf;
#X obj 416 90 bng 10 250 50 0 empty empty empty 17 7 0 10 -262144 -1
-1;
#X obj 47 7 r mtBeats;
#X connect 0 0 1 0;
#X connect 0 0 2 1;
#X connect 1 0 4 0;
#X connect 2 0 0 0;
#X connect 3 0 2 1;
#X connect 4 0 5 0;
#X connect 4 0 12 0;
#X connect 4 0 6 0;
#X connect 4 0 28 0;
#X connect 6 0 3 0;
#X connect 7 0 4 1;
#X connect 7 0 15 1;
#X connect 8 0 4 1;
#X connect 8 0 15 1;
#X connect 9 0 27 0;
#X connect 9 1 7 0;
#X connect 9 2 8 0;
#X connect 9 3 10 0;
#X connect 9 4 11 0;
#X connect 10 0 4 1;
#X connect 10 0 15 1;
#X connect 11 0 4 1;
#X connect 11 0 15 1;
#X connect 12 0 20 0;
#X connect 14 0 17 0;
#X connect 14 0 18 0;
#X connect 15 0 14 0;
#X connect 15 0 19 0;
#X connect 16 0 28 0;
#X connect 17 0 16 1;
#X connect 20 0 16 1;
#X connect 22 0 24 0;
#X connect 23 0 13 0;
#X connect 23 0 25 0;
#X connect 24 0 26 0;
#X connect 24 1 23 1;
#X connect 26 0 13 0;
#X connect 27 0 4 1;
#X connect 27 0 15 1;
#X connect 28 0 16 1;
#X connect 28 0 21 0;
#X connect 28 0 15 0;
#X connect 28 0 31 1;
#X connect 29 0 0 0;
#X connect 30 0 29 0;
#X connect 31 0 23 0;
#X connect 32 0 9 0;
#X connect 33 0 22 0;
#X connect 34 0 35 0;
#X connect 34 0 31 0;
#X connect 36 0 30 0;
#X coords 0 379 1 378 100 30 0;
#X restore 106 166 pd shuffBASS;
#X obj 106 186 s /i/bass/duration;
#X obj 101 50 cnv 15 104 15 empty empty BASS 5 8 0 14 -86277 -262144
0;
#X obj 196 57 bng 8 250 50 0 empty trgBass empty 17 7 0 10 -86277 -261234
-1;
#X obj 236 419 s trgBass;
#X obj 164 133 nbx 2 10 1 16 0 1 /i/bass/chan empty chan 0 -6 0 9 -262144
-1 -1 2 256;
#X connect 0 0 1 0;
#X connect 1 0 2 0;
#X connect 1 0 17 0;
#X connect 3 0 29 0;
#X connect 4 0 6 0;
#X connect 4 1 6 1;
#X connect 4 2 6 2;
#X connect 5 0 4 1;
#X connect 5 0 28 0;
#X connect 6 0 10 0;
#X connect 7 0 8 0;
#X connect 8 0 4 4;
#X connect 9 0 4 0;
#X connect 9 1 1 1;
#X connect 11 0 12 0;
#X connect 11 1 13 0;
#X connect 11 2 14 0;
#X connect 12 0 17 1;
#X connect 13 0 17 1;
#X connect 14 0 17 1;
#X connect 15 0 16 0;
#X connect 16 0 5 0;
#X connect 17 0 15 0;
#X connect 18 0 9 0;
#X connect 19 0 5 1;
#X connect 20 0 11 0;
#X connect 21 0 7 0;
#X connect 22 0 4 3;
#X connect 23 0 4 2;
#X connect 24 0 25 0;
#X coords 0 -1 1 1 105 16 2 100 50;
#X restore 436 14 pd BASSplayer;
#N canvas 1033 253 451 497 PADplayer 0;
#X obj 227 194 r mtBeats;
#X obj 222 254 spigot;
#X obj 231 273 bng 8 250 50 0 empty empty empty 17 7 0 10 -262144 -1
-1;
#X obj 43 9 loadbang;
#N canvas 645 140 501 542 playPattern 0;
#X floatatom 265 111 5 0 0 0 - - -;
#X floatatom 106 90 3 0 0 0 - - -;
#X msg 173 240 100;
#X obj 169 275 makenote;
#X obj 107 188 spigot;
#X obj 173 190 loadbang;
#X obj 23 244 inlet onOff;
#X obj 98 17 inlet trigger;
#X obj 185 17 inlet mode;
#X obj 309 17 inlet channel;
#X obj 396 17 inlet root;
#X obj 143 436 outlet note;
#X obj 209 417 outlet vel;
#X obj 266 395 outlet chan;
#X obj 245 341 t b f;
#X obj 309 371 nbx 2 14 1 16 0 1 empty empty empty 0 -8 0 10 -262144
-1 -1 3 256;
#X obj 98 119 diatonic-scale2;
#X obj 98 71 tabread /g/t/notes_A;
#X obj 254 91 tabread /g/t/pattern_A;
#X connect 2 0 3 1;
#X connect 3 0 11 0;
#X connect 3 1 14 0;
#X connect 4 0 3 0;
#X connect 5 0 2 0;
#X connect 7 0 18 0;
#X connect 7 0 17 0;
#X connect 8 0 16 2;
#X connect 9 0 15 0;
#X connect 10 0 16 1;
#X connect 14 0 15 0;
#X connect 14 1 12 0;
#X connect 15 0 13 0;
#X connect 16 0 4 0;
#X connect 17 0 1 0;
#X connect 17 0 16 0;
#X connect 18 0 0 0;
#X connect 18 0 4 1;
#X connect 18 0 3 2;
#X restore 43 337 pd playPattern;
#N canvas 0 23 450 300 trgPatt 0;
#X obj 47 138 + 1;
#X floatatom 47 158 5 0 0 0 - - -;
#X obj 85 137 i;
#X msg 100 115 0;
#X obj 47 177 mod 8;
#X floatatom 47 196 5 0 0 0 - - -;
#X obj 100 94 sel 0;
#X msg 144 131 4;
#X msg 148 150 8;
#X msg 152 169 16;
#X obj 194 65 sel 0 1 2;
#X obj 47 46 inlet beat;
#X obj 47 225 outlet read;
#X obj 265 105 bng 10 250 50 0 empty empty empty 17 7 0 10 -262144
-1 -1;
#X obj 194 39 inlet length;
#X connect 0 0 1 0;
#X connect 0 0 2 1;
#X connect 1 0 4 0;
#X connect 2 0 0 0;
#X connect 3 0 2 1;
#X connect 4 0 5 0;
#X connect 5 0 6 0;
#X connect 5 0 12 0;
#X connect 6 0 3 0;
#X connect 7 0 4 1;
#X connect 8 0 4 1;
#X connect 9 0 4 1;
#X connect 10 0 7 0;
#X connect 10 1 8 0;
#X connect 10 2 9 0;
#X connect 11 0 0 0;
#X connect 11 0 13 0;
#X connect 14 0 10 0;
#X coords 0 -1 1 1 85 20 1 200 100;
#X restore 222 287 pd trgPatt;
#X obj 55 392 pack f f f;
#X obj 124 270 * 12;
#X obj 124 290 + 36;
#X obj 43 207 t f f;
#X obj 55 422 s MIDIpad;
#X obj 101 51 cnv 15 104 15 empty empty PAD 5 8 0 14 -83269 -262144
0;
#X obj 194 54 bng 8 250 50 0 empty trgPad empty 17 7 0 10 -83269 -262130
-1;
#X obj 43 156 r /i/pad/on;
#X obj 84 175 r /i/pad/mode;
#X obj 124 249 r /i/pad/oct;
#X obj 279 223 r /i/pad/len;
#X obj 103 197 r /i/pad/chan;
#X obj 43 29 s /i/pad/chan;
#X obj 222 312 s trgPad;
#X connect 0 0 1 0;
#X connect 1 0 2 0;
#X connect 1 0 5 0;
#X connect 3 0 18 0;
#X connect 4 0 6 0;
#X connect 4 1 6 1;
#X connect 4 2 6 2;
#X connect 5 0 4 1;
#X connect 5 0 19 0;
#X connect 6 0 10 0;
#X connect 7 0 8 0;
#X connect 8 0 4 4;
#X connect 9 0 4 0;
#X connect 9 1 1 1;
#X connect 13 0 9 0;
#X connect 14 0 4 2;
#X connect 15 0 7 0;
#X connect 16 0 5 1;
#X connect 17 0 4 3;
#X coords 0 -1 1 1 105 16 1 100 50;
#X restore 436 52 pd PADplayer;
#N canvas 607 101 371 600 MELplayer 0;
#X obj 25 20 r mtBeats;
#N canvas 404 145 450 300 trgMel 0;
#X obj 47 138 + 1;
#X floatatom 47 158 5 0 0 0 - - -;
#X obj 85 137 i;
#X msg 100 115 0;
#X obj 47 177 mod 8;
#X floatatom 47 196 5 0 0 0 - - -;
#X obj 100 94 sel 0;
#X msg 144 131 4;
#X msg 148 150 8;
#X msg 152 169 16;
#X obj 192 65 sel 0 1 2;
#X obj 47 46 inlet beat;
#X obj 47 225 outlet read;
#X obj 272 29 r melLen;
#X obj 265 105 bng 10 250 50 0 empty empty empty 17 7 0 10 -262144
-1 -1;
#X obj 187 26 inlet length;
#X connect 0 0 1 0;
#X connect 0 0 2 1;
#X connect 1 0 4 0;
#X connect 2 0 0 0;
#X connect 3 0 2 1;
#X connect 4 0 5 0;
#X connect 5 0 6 0;
#X connect 5 0 12 0;
#X connect 6 0 3 0;
#X connect 7 0 4 1;
#X connect 8 0 4 1;
#X connect 9 0 4 1;
#X connect 10 0 7 0;
#X connect 10 1 8 0;
#X connect 10 2 9 0;
#X connect 11 0 0 0;
#X connect 11 0 14 0;
#X connect 15 0 10 0;
#X coords 0 -1 1 1 85 20 1 200 100;
#X restore 94 342 pd trgMel;
#N canvas 751 46 501 430 playMEL 0;
#X floatatom 273 91 5 0 0 0 - - -;
#X floatatom 147 90 3 0 0 0 - - -;
#X msg 204 161 100;
#X obj 182 203 makenote;
#X obj 107 188 spigot;
#X obj 143 234 spigot;
#X obj 204 141 loadbang;
#X obj 57 17 inlet onOff;
#X obj 134 17 inlet trigger;
#X obj 232 17 inlet mode;
#X obj 309 17 inlet channel;
#X obj 404 16 inlet root;
#X obj 46 359 outlet note;
#X obj 121 359 outlet vel;
#X obj 324 360 outlet chan;
#X obj 215 254 t b f;
#X obj 294 292 nbx 2 14 1 16 0 1 empty empty empty 0 -8 0 10 -262144
-1 -1 4 256;
#X obj 188 234 spigot;
#X obj 214 342 pack f f f;
#X obj 212 367 s MIDImel;
#X obj 88 123 diatonic-scale2;
#X obj 262 71 tabread /g/t/pattern_B;
#X obj 133 71 tabread /g/t/notes_B;
#X connect 2 0 3 1;
#X connect 3 0 5 0;
#X connect 3 1 17 0;
#X connect 4 0 3 0;
#X connect 5 0 12 0;
#X connect 5 0 18 0;
#X connect 6 0 2 0;
#X connect 7 0 5 1;
#X connect 7 0 17 1;
#X connect 8 0 21 0;
#X connect 8 0 22 0;
#X connect 9 0 20 2;
#X connect 10 0 16 0;
#X connect 11 0 20 1;
#X connect 15 0 16 0;
#X connect 15 1 13 0;
#X connect 15 1 18 1;
#X connect 16 0 14 0;
#X connect 16 0 18 2;
#X connect 17 0 15 0;
#X connect 18 0 19 0;
#X connect 20 0 4 0;
#X connect 21 0 0 0;
#X connect 21 0 4 1;
#X connect 21 0 3 2;
#X connect 22 0 1 0;
#X connect 22 0 20 0;
#X restore 115 483 pd playMEL;
#X obj 37 150 sel 0 1 2;
#X msg 37 170 1, f 1;
#X msg 53 170 2, f 1;
#X msg 69 170 4, f 1;
#X obj 25 232 int;
#X obj 25 256 change;
#X obj 25 206 / 1;
#X obj 172 317 r /i/mel/pattLen;
#X obj 143 413 r /i/mel/mode;
#X obj 37 117 r /i/mel/duration;
#X obj 172 453 r /i/mel/root;
#X obj 157 433 r /i/mel/chan;
#N canvas 396 514 589 379 shuffMEL 0;
#X obj 47 138 + 1;
#X floatatom 47 158 5 0 0 0 - - -;
#X obj 85 137 i;
#X msg 100 115 0;
#X obj 47 177 mod 8;
#X floatatom 56 210 3 0 0 0 - - -;
#X obj 100 94 sel 0;
#X obj 47 9 inlet beat;
#X msg 163 150 4;
#X msg 167 169 8;
#X obj 192 65 sel 0 1 2 3 4 5;
#X msg 173 189 16;
#X msg 179 212 32;
#X obj 367 42 bng 10 250 50 0 empty empty empty 17 7 0 10 -262144 -1
-1;
#X obj 98 220 sel 0;
#X obj 334 326 outlet modeOut;
#X obj 116 323 sel 0;
#X obj 116 301 mod 4;
#X obj 83 267 i 1;
#X msg 116 240 0, f 1;
#X obj 125 342 bng 10 250 50 0 empty empty empty 17 7 0 10 -262144
-1 -1;
#X floatatom 158 323 5 0 0 0 - - -;
#X msg 98 240 0, f 1;
#X floatatom 47 295 3 0 0 0 - - -;
#X obj 236 48 hradio 10 1 0 6 empty empty empty 0 -8 0 10 -262144 -1
-1 4;
#X obj 463 154 tgl 10 0 empty empty empty 17 7 0 10 -262144 -1 -1 0
1;
#X obj 334 263 spigot;
#X obj 463 205 t b f;
#X floatatom 346 285 2 0 0 0 - - -;
#X msg 463 244 0, f 2;
#X msg 159 131 0;
#X obj 47 268 + 0;
#X obj 47 54 change;
#X obj 47 34 div 2;
#N canvas 990 258 448 432 UmAcomeAlobaMEL 0;
#X obj 39 46 bng 15 250 50 0 empty empty shuff -8 -7 0 10 -262144 -1
-1;
#N canvas 272 301 450 300 reShuffle 0;
#X msg 72 93 1;
#X obj 71 184 + 1;
#X floatatom 71 204 5 0 0 0 - - -;
#X obj 109 183 i;
#X msg 148 119 0;
#X floatatom 71 243 5 0 0 0 - - -;
#X obj 157 212 sel 0;
#X msg 103 117 0;
#X obj 69 141 metro 50;
#X obj 38 27 inlet newPatt;
#X obj 71 262 outlet value;
#X obj 71 223 mod 32;
#X connect 0 0 8 0;
#X connect 1 0 2 0;
#X connect 1 0 3 1;
#X connect 2 0 11 0;
#X connect 3 0 1 0;
#X connect 4 0 3 1;
#X connect 4 0 7 0;
#X connect 5 0 6 0;
#X connect 5 0 10 0;
#X connect 6 0 4 0;
#X connect 7 0 8 0;
#X connect 8 0 3 0;
#X connect 9 0 0 0;
#X connect 11 0 5 0;
#X restore 82 66 pd reShuffle;
#N canvas 0 23 450 278 (subpatch) 0;
#X array patternMEL 32 float 3;
#A 0 1 5 0 5 3 3 4 0 2 4 1 5 4 4 5 1 0 1 3 1 2 2 2 0 5 5 1 2 0 4 4
1;
#X coords 0 0 32 5 200 140 1 0 0;
#X restore 229 220 graph;
#X obj 46 152 bng 10 250 50 0 empty empty empty 17 7 0 8 -262144 -1
-1;
#X obj 73 364 t b f;
#X floatatom 115 394 3 0 0 1 th_note - -;
#X obj 46 239 random 8;
#X msg 22 301 0, f 2;
#X msg 51 301 1, f 2;
#X msg 80 301 2, f 2;
#X msg 109 301 3, f 2;
#X msg 133 301 4, f 2;
#X msg 158 302 5, f 2;
#X obj 292 38 inlet readPos;
#X obj 292 78 outlet modeOut;
#X floatatom 232 71 5 0 0 0 - - -;
#X obj 46 260 sel 0 1 2 3 4 5 6;
#X msg 181 302 6, f 2;
#X obj 299 57 tabread patternMEL;
#X obj 99 33 inlet shuffleMEL;
#X obj 100 97 tabwrite patternMEL;
#X connect 0 0 1 0;
#X connect 1 0 3 0;
#X connect 1 0 20 1;
#X connect 3 0 6 0;
#X connect 4 1 5 0;
#X connect 4 1 20 0;
#X connect 6 0 16 0;
#X connect 7 0 4 0;
#X connect 8 0 4 0;
#X connect 9 0 4 0;
#X connect 10 0 4 0;
#X connect 11 0 4 0;
#X connect 12 0 4 0;
#X connect 13 0 15 0;
#X connect 13 0 18 0;
#X connect 16 0 7 0;
#X connect 16 1 8 0;
#X connect 16 2 9 0;
#X connect 16 3 10 0;
#X connect 16 4 11 0;
#X connect 16 5 12 0;
#X connect 16 6 17 0;
#X connect 18 0 14 0;
#X connect 19 0 1 0;
#X restore 334 113 pd UmAcomeAlobaMEL;
#X obj 475 75 r /i/mel/shfOn;
#X obj 334 21 r /i/mel/shfReshf;
#X obj 188 29 r /i/mel/shfLen;
#X connect 0 0 1 0;
#X connect 0 0 2 1;
#X connect 1 0 4 0;
#X connect 2 0 0 0;
#X connect 3 0 2 1;
#X connect 4 0 5 0;
#X connect 4 0 14 0;
#X connect 4 0 6 0;
#X connect 4 0 31 0;
#X connect 6 0 3 0;
#X connect 7 0 33 0;
#X connect 8 0 4 1;
#X connect 8 0 17 1;
#X connect 9 0 4 1;
#X connect 9 0 17 1;
#X connect 10 0 30 0;
#X connect 10 1 8 0;
#X connect 10 2 9 0;
#X connect 10 3 11 0;
#X connect 10 4 12 0;
#X connect 11 0 4 1;
#X connect 11 0 17 1;
#X connect 12 0 4 1;
#X connect 12 0 17 1;
#X connect 14 0 22 0;
#X connect 16 0 19 0;
#X connect 16 0 20 0;
#X connect 17 0 16 0;
#X connect 17 0 21 0;
#X connect 18 0 31 0;
#X connect 19 0 18 1;
#X connect 22 0 18 1;
#X connect 24 0 10 0;
#X connect 25 0 27 0;
#X connect 26 0 15 0;
#X connect 26 0 28 0;
#X connect 27 0 29 0;
#X connect 27 1 26 1;
#X connect 29 0 15 0;
#X connect 30 0 4 1;
#X connect 30 0 17 1;
#X connect 31 0 18 1;
#X connect 31 0 23 0;
#X connect 31 0 17 0;
#X connect 31 0 34 1;
#X connect 32 0 0 0;
#X connect 33 0 32 0;
#X connect 34 0 26 0;
#X connect 35 0 25 0;
#X connect 36 0 13 0;
#X connect 36 0 34 0;
#X connect 37 0 10 0;
#X coords 0 379 1 378 100 30 0;
#X restore 117 273 pd shuffMEL;
#X obj 117 293 s /i/mel/duration;
#X obj 97 246 r mtBeats;
#X obj 123 369 s /g/readIndex_B;
#X obj 101 151 cnv 15 104 15 empty empty MEL 5 8 0 14 -13381 -262144
0;
#X obj 196 157 bng 8 250 50 0 empty trgMel empty 17 7 0 10 -13381 -204786
-1;
#X obj 25 68 spigot;
#X obj 19 413 t f f, f 7;
#X obj 19 388 r /i/mel/on;
#X obj 92 390 s trgMel;
#X connect 0 0 21 0;
#X connect 1 0 2 1;
#X connect 1 0 18 0;
#X connect 1 0 24 0;
#X connect 3 0 4 0;
#X connect 3 1 5 0;
#X connect 3 2 6 0;
#X connect 4 0 9 1;
#X connect 5 0 9 1;
#X connect 6 0 9 1;
#X connect 7 0 8 0;
#X connect 8 0 1 0;
#X connect 9 0 7 0;
#X connect 10 0 1 1;
#X connect 11 0 2 2;
#X connect 12 0 3 0;
#X connect 13 0 2 4;
#X connect 14 0 2 3;
#X connect 15 0 16 0;
#X connect 17 0 15 0;
#X connect 21 0 9 0;
#X connect 22 0 2 0;
#X connect 22 1 21 1;
#X connect 23 0 22 0;
#X coords 0 -1 1 1 105 16 2 100 150;
#X restore 436 33 pd MELplayer;
#N canvas 603 134 329 545 PERCplayer 0;
#X obj 20 16 r mtBeats;
#N canvas 341 31 450 300 trgPerc 0;
#X obj 47 138 + 1;
#X floatatom 47 158 5 0 0 0 - - -;
#X obj 85 137 i;
#X msg 100 115 0;
#X obj 47 177 mod 8;
#X floatatom 47 196 5 0 0 0 - - -;
#X obj 100 94 sel 0;
#X msg 144 131 4;
#X msg 148 150 8;
#X msg 152 169 16;
#X obj 192 65 sel 0 1 2;
#X obj 47 46 inlet beat;
#X obj 47 225 outlet read;
#X obj 265 105 bng 10 250 50 0 empty empty empty 17 7 0 10 -262144
-1 -1;
#X obj 192 35 inlet length;
#X connect 0 0 1 0;
#X connect 0 0 2 1;
#X connect 1 0 4 0;
#X connect 2 0 0 0;
#X connect 3 0 2 1;
#X connect 4 0 5 0;
#X connect 5 0 6 0;
#X connect 5 0 12 0;
#X connect 6 0 3 0;
#X connect 7 0 4 1;
#X connect 8 0 4 1;
#X connect 9 0 4 1;
#X connect 10 0 7 0;
#X connect 10 1 8 0;
#X connect 10 2 9 0;
#X connect 11 0 0 0;
#X connect 11 0 13 0;
#X connect 14 0 10 0;
#X coords 0 -1 1 1 85 20 1 200 100;
#X restore 98 377 pd trgPerc;
#N canvas 707 138 472 420 playPerc 0;
#X obj 161 226 makenote;
#X obj 134 153 + 60;
#X obj 122 262 spigot;
#X floatatom 170 126 3 0 0 0 - - -;
#X floatatom 170 87 3 0 0 0 - - -;
#X obj 231 143 loadbang;
#X obj 32 187 inlet onOff;
#X obj 134 23 inlet trigger;
#X obj 188 288 t b f;
#X obj 219 322 nbx 2 14 1 16 0 1 empty empty empty 0 -8 0 10 -262144
-1 -1 1 256;
#X obj 157 347 pack f f f;
#X obj 157 367 s MIDIperc;
#X obj 171 262 spigot;
#X msg 168 180 100;
#X obj 134 67 tabread /g/t/notes_B;
#X obj 151 105 tabread /g/t/pattern_B;
#X connect 0 0 2 0;
#X connect 0 1 12 0;
#X connect 1 0 0 0;
#X connect 2 0 10 0;
#X connect 5 0 13 0;
#X connect 6 0 2 1;
#X connect 6 0 12 1;
#X connect 7 0 14 0;
#X connect 7 0 15 0;
#X connect 8 0 9 0;
#X connect 8 1 10 1;
#X connect 9 0 10 2;
#X connect 10 0 11 0;
#X connect 12 0 8 0;
#X connect 13 0 0 1;
#X connect 14 0 4 0;
#X connect 14 0 1 0;
#X connect 15 0 3 0;
#X connect 15 0 0 2;
#X restore 61 493 pd playPerc;
#X obj 98 301 int;
#X obj 98 325 change;
#X obj 98 275 / 1;
#X obj 113 249 + 1;
#X obj 176 331 r /i/perc/pattLen;
#X obj 113 211 r /i/perc/duration;
#N canvas 330 444 490 379 shuffPERC 0;
#X obj 47 138 + 1;
#X floatatom 47 158 5 0 0 0 - - -;
#X obj 85 137 i;
#X msg 100 115 0;
#X obj 47 177 mod 8;
#X floatatom 56 210 3 0 0 0 - - -;
#X obj 100 94 sel 0;
#X msg 163 150 4;
#X msg 167 169 8;
#X obj 181 65 sel 0 1 2 3 4 5;
#X msg 173 189 16;
#X msg 179 212 32;
#X obj 344 83 bng 10 250 50 0 empty empty empty 17 7 0 10 -262144 -1
-1;
#X obj 98 220 sel 0;
#X obj 324 312 outlet modeOut;
#X obj 116 323 sel 0;
#X obj 116 301 mod 4;
#X obj 83 267 i 1;
#X msg 116 240 0, f 1;
#X obj 125 342 bng 10 250 50 0 empty empty empty 17 7 0 10 -262144
-1 -1;
#X floatatom 158 323 5 0 0 0 - - -;
#X msg 98 240 0, f 1;
#X floatatom 47 295 3 0 0 0 - - -;
#X obj 278 131 tgl 10 0 empty empty empty 17 7 0 10 -262144 -1 -1 0
1;
#X obj 324 263 spigot;
#X obj 278 206 t b f;
#X floatatom 336 285 2 0 0 0 - - -;
#X msg 278 226 0, f 2;
#X msg 159 131 0;
#X obj 47 268 + 0;
#X obj 47 52 change;
#X obj 47 32 div 2;
#N canvas 399 289 450 434 UmAcomeAlobaPERC 0;
#X obj 39 46 bng 15 250 50 0 empty empty shuff -8 -7 0 10 -262144 -1
-1;
#N canvas 272 301 450 300 reShuffle 0;
#X msg 72 93 1;
#X obj 71 184 + 1;
#X floatatom 71 204 5 0 0 0 - - -;
#X obj 109 183 i;
#X msg 148 119 0;
#X floatatom 71 243 5 0 0 0 - - -;
#X obj 157 212 sel 0;
#X msg 103 117 0;
#X obj 69 141 metro 50;
#X obj 38 27 inlet newPatt;
#X obj 71 262 outlet value;
#X obj 71 223 mod 32;
#X connect 0 0 8 0;
#X connect 1 0 2 0;
#X connect 1 0 3 1;
#X connect 2 0 11 0;
#X connect 3 0 1 0;
#X connect 4 0 3 1;
#X connect 4 0 7 0;
#X connect 5 0 6 0;
#X connect 5 0 10 0;
#X connect 6 0 4 0;
#X connect 7 0 8 0;
#X connect 8 0 3 0;
#X connect 9 0 0 0;
#X connect 11 0 5 0;
#X restore 82 66 pd reShuffle;
#N canvas 0 23 450 278 (subpatch) 0;
#X array patternPERC 32 float 3;
#A 0 1 1 4 5 3 5 3 3 1 4 2 2 1 1 0 1 2 1 5 0 1 5 5 1 1 3 3 3 3 1 1
1;
#X coords 0 0 32 5 200 140 1 0 0;
#X restore 229 220 graph;
#X obj 46 152 bng 10 250 50 0 empty empty empty 17 7 0 8 -262144 -1
-1;
#X obj 73 364 t b f;
#X floatatom 115 394 3 0 0 1 th_note - -;
#X obj 46 239 random 8;
#X msg 22 301 0, f 2;
#X msg 51 301 1, f 2;
#X msg 80 301 2, f 2;
#X msg 109 301 3, f 2;
#X msg 133 301 4, f 2;
#X msg 158 302 5, f 2;
#X obj 292 38 inlet readPos;
#X obj 292 78 outlet modeOut;
#X obj 297 57 tabread patternPERC;
#X obj 100 97 tabwrite patternPERC;
#X obj 99 33 inlet shufflePERC;
#X floatatom 232 71 5 0 0 0 - - -;
#X obj 46 260 sel 0 1 2 3 4 5 6 7 8;
#X connect 0 0 1 0;
#X connect 1 0 3 0;
#X connect 1 0 16 1;
#X connect 3 0 6 0;
#X connect 4 1 5 0;
#X connect 4 1 16 0;
#X connect 6 0 19 0;
#X connect 7 0 4 0;
#X connect 8 0 4 0;
#X connect 9 0 4 0;
#X connect 10 0 4 0;
#X connect 11 0 4 0;
#X connect 12 0 4 0;
#X connect 13 0 15 0;
#X connect 13 0 18 0;
#X connect 15 0 14 0;
#X connect 17 0 1 0;
#X connect 19 0 7 0;
#X connect 19 1 8 0;
#X connect 19 2 9 0;
#X connect 19 3 10 0;
#X connect 19 4 11 0;
#X connect 19 5 12 0;
#X connect 19 6 8 0;
#X connect 19 7 8 0;
#X connect 19 8 10 0;
#X restore 324 135 pd UmAcomeAlobaPERC;
#X obj 181 11 r /i/perc/shfLen;
#X obj 324 64 r /i/perc/shfReshf;
#X obj 278 37 r /i/perc/shfOn;
#X obj 47 7 r mtBeats;
#X connect 0 0 1 0;
#X connect 0 0 2 1;
#X connect 1 0 4 0;
#X connect 2 0 0 0;
#X connect 3 0 2 1;
#X connect 4 0 5 0;
#X connect 4 0 13 0;
#X connect 4 0 6 0;
#X connect 4 0 29 0;
#X connect 6 0 3 0;
#X connect 7 0 4 1;
#X connect 7 0 16 1;
#X connect 8 0 4 1;
#X connect 8 0 16 1;
#X connect 9 0 28 0;
#X connect 9 1 7 0;
#X connect 9 2 8 0;
#X connect 9 3 10 0;
#X connect 9 4 11 0;
#X connect 10 0 4 1;
#X connect 10 0 16 1;
#X connect 11 0 4 1;
#X connect 11 0 16 1;
#X connect 13 0 21 0;
#X connect 15 0 18 0;
#X connect 15 0 19 0;
#X connect 16 0 15 0;
#X connect 16 0 20 0;
#X connect 17 0 29 0;
#X connect 18 0 17 1;
#X connect 21 0 17 1;
#X connect 23 0 25 0;
#X connect 24 0 14 0;
#X connect 24 0 26 0;
#X connect 25 0 27 0;
#X connect 25 1 24 1;
#X connect 27 0 14 0;
#X connect 28 0 4 1;
#X connect 28 0 16 1;
#X connect 29 0 17 1;
#X connect 29 0 22 0;
#X connect 29 0 16 0;
#X connect 29 0 32 1;
#X connect 30 0 0 0;
#X connect 31 0 30 0;
#X connect 32 0 24 0;
#X connect 33 0 9 0;
#X connect 34 0 32 0;
#X connect 34 0 12 0;
#X connect 35 0 23 0;
#X connect 36 0 31 0;
#X coords 0 379 1 378 100 30 0;
#X restore 115 162 pd shuffPERC;
#X obj 115 182 s /i/perc/duration;
#X obj 81 51 cnv 15 104 15 empty empty PERCUSSION 5 8 0 14 -45076 -262130
0;
#X obj 176 55 bng 8 250 50 0 empty trgPerc empty 17 7 0 10 -45076 -232576
-1;
#X obj 20 113 spigot;
#X obj 21 436 t f f;
#X obj 21 411 r /i/perc/on;
#X obj 117 408 s trgPerc;
#X connect 0 0 13 0;
#X connect 1 0 2 1;
#X connect 1 0 16 0;
#X connect 3 0 4 0;
#X connect 4 0 1 0;
#X connect 5 0 3 0;
#X connect 6 0 5 1;
#X connect 7 0 1 1;
#X connect 8 0 6 0;
#X connect 9 0 10 0;
#X connect 13 0 5 0;
#X connect 14 0 2 0;
#X connect 14 1 13 1;
#X connect 15 0 14 0;
#X coords 0 -1 1 1 106 16 1 80 50;
#X restore 328 71 pd PERCplayer;
#N canvas 731 77 398 667 swing 0;
#X obj 121 386 del 10;
#X obj 239 133 t b f, f 7;
#X obj 263 190 /;
#X msg 239 160 15000;
#X floatatom 289 217 5 0 0 0 - - -;
#X obj 216 230 t b f;
#X obj 154 299 *;
#X floatatom 182 320 5 0 0 0 - - -;
#X obj 239 28 inlet bpm;
#X obj 51 28 inlet metrobeat;
#X obj 51 255 mod 4;
#X obj 51 287 sel 1 3;
#X obj 171 527 + 1;
#X text 175 491 reset;
#X obj 121 526 int 1;
#X msg 148 492 0;
#X obj 121 430 bng 8 250 50 0 empty empty empty 17 7 0 10 -262144 -1
-1;
#X obj 90 430 bng 8 250 50 0 empty empty empty 17 7 0 10 -262144 -1
-1;
#X floatatom 131 553 5 0 0 0 - - -;
#X obj 148 458 r stop;
#X obj 263 451 /;
#X obj 263 396 t b f;
#X obj 263 475 * 100;
#X obj 263 497 + 50;
#X floatatom 287 525 4 0 0 0 - - -;
#X obj 111 121 clip 0 2;
#X obj 111 146 / 10;
#X obj 263 597 s mtSwing;
#X obj 120 599 s mtBeats;
#X obj 111 94 r setMtSwing;
#X obj 131 230 r /g/swing;
#X text 283 233 16th millisec;
#X floatatom 239 48 5 0 0 0 - - -;
#X connect 0 0 16 0;
#X connect 1 0 3 0;
#X connect 1 1 2 1;
#X connect 2 0 4 0;
#X connect 2 0 5 0;
#X connect 2 0 21 0;
#X connect 3 0 2 0;
#X connect 5 0 6 0;
#X connect 5 1 6 1;
#X connect 6 0 0 1;
#X connect 6 0 7 0;
#X connect 6 0 20 0;
#X connect 8 0 1 0;
#X connect 8 0 32 0;
#X connect 9 0 10 0;
#X connect 10 0 11 0;
#X connect 11 0 0 0;
#X connect 11 1 0 0;
#X connect 11 2 17 0;
#X connect 12 0 14 1;
#X connect 14 0 12 0;
#X connect 14 0 18 0;
#X connect 14 0 28 0;
#X connect 15 0 14 1;
#X connect 16 0 14 0;
#X connect 17 0 14 0;
#X connect 19 0 15 0;
#X connect 20 0 22 0;
#X connect 21 0 20 0;
#X connect 21 1 20 1;
#X connect 22 0 23 0;
#X connect 23 0 24 0;
#X connect 23 0 27 0;
#X connect 25 0 26 0;
#X connect 29 0 25 0;
#X connect 30 0 6 0;
#X coords 0 667 1 666 150 35 0;
#X restore 32 134 pd swing;
#N canvas 109 103 703 637 patternizer_B 0;
#X obj 177 53 bng 10 250 50 0 empty ro.Duration r.ro.Duration 17 7
0 8 -262144 -1 -1;
#X msg 221 172 8, f 2;
#X msg 192 172 4, f 2;
#X msg 163 172 2, f 2;
#X msg 134 172 1, f 2;
#X obj 204 235 t b f;
#X obj 216 332 / 1;
#X floatatom 147 286 5 0 0 0 ms/beat - -;
#X floatatom 38 138 4 0 0 0 bpm - -;
#X obj 45 46 bng 10 250 50 0 empty empty empty 17 7 0 10 -262144 -1
-1;
#X obj 74 172 t b f;
#X msg 39 207 60000;
#X obj 86 243 / 1;
#X floatatom 246 265 3 0 0 1 th_note - -;
#X obj 399 119 bng 10 250 50 0 empty empty empty 17 7 0 8 -262144 -1
-1;
#X obj 460 275 t b f;
#X msg 513 206 8, f 2;
#X msg 535 206 9, f 2;
#X msg 558 206 10, f 2;
#X msg 581 206 11, f 2;
#X obj 399 164 sel 0 1 2 3 4 5 6 7 8 9 10;
#X obj 460 347 f;
#X text 42 89 increase RANDOM value for more chance of 0;
#X obj 563 79 bng 15 250 50 0 empty patternB_new new -8 -7 0 10 -262144
-1 -1;
#X msg 359 206 0, f 2;
#X msg 382 206 1, f 2;
#X msg 404 206 2, f 2;
#X msg 426 206 3, f 2;
#X msg 447 206 4, f 2;
#X msg 469 206 5, f 2;
#X msg 491 206 6, f 2;
#X obj 399 144 random 7;
#X obj 177 110 random 8;
#N canvas 0 180 428 361 newPattern 0;
#X msg 69 86 1;
#X obj 71 184 + 1;
#X floatatom 39 205 3 0 0 0 - - -;
#X obj 109 183 i;
#X msg 148 119 0;
#X obj 71 223 mod 8;
#X floatatom 38 244 3 0 0 0 - - -;
#X obj 248 238 sel 0;
#X msg 109 86 0;
#X msg 226 120 4;
#X msg 256 120 8;
#X msg 287 120 16;
#X obj 236 69 sel 0 1 2;
#X obj 69 28 inlet newPatt;
#X obj 236 28 inlet pattLen;
#X obj 71 272 outlet value;
#X obj 69 141 metro 10;
#X connect 0 0 16 0;
#X connect 1 0 2 0;
#X connect 1 0 3 1;
#X connect 1 0 5 0;
#X connect 3 0 1 0;
#X connect 4 0 3 1;
#X connect 4 0 8 0;
#X connect 5 0 6 0;
#X connect 5 0 7 0;
#X connect 5 0 15 0;
#X connect 7 0 4 0;
#X connect 8 0 16 0;
#X connect 9 0 5 1;
#X connect 10 0 5 1;
#X connect 11 0 5 1;
#X connect 12 0 9 0;
#X connect 12 1 10 0;
#X connect 12 2 11 0;
#X connect 13 0 0 0;
#X connect 14 0 12 0;
#X connect 16 0 3 0;
#X restore 563 104 pd newPattern;
#N canvas 0 23 450 278 (subpatch) 0;
#X array /g/t/pattern_B 16 float 3;
#A 0 1000 2000 250 1000 250 1000 2000 2000 1200 75 0 0 0 0 0 0;
#X coords 0 3000 16 -100 250 100 1 0 0;
#X restore 43 370 graph;
#N canvas 0 23 450 278 (subpatch) 0;
#X array /g/t/notes_B 16 float 3;
#A 0 6 2 -0.74 -0.74 5 5 5 5 5 5 5 4 5 4 5 4;
#X coords 0 12 16 -1 250 100 1 0 0;
#X restore 41 503 graph;
#X obj 38 27 r mtBpm;
#X obj 312 95 + 6;
#X floatatom 308 121 5 0 0 0 - - -;
#X msg 270 173 0.5, f 2;
#X obj 177 130 sel 0 1 2 3 4 5;
#X msg 297 174 0, f 2;
#X msg 245 172 0.5, f 2;
#X obj 531 362 tabwrite /g/t/pattern_B;
#X obj 562 381 tabwrite /g/t/notes_B;
#X msg 349 39 \; /g/t/notes_B 0 1 2 3 4 5 6 7 8 9 10 11 12 13 14 15
16 \;;
#X msg 297 6 \; /g/t/notes_B 0 50 50 50 50 50 50 50 50 50 50 50 50
50 50 50 50 \;, f 65;
#X obj 43 475 hsl 250 15 0 15 0 0 empty /g/readIndex_B empty -2 -8
0 10 -262144 -1 -1 0 1;
#X obj 204 67 r /i/patternB/dens;
#X obj 584 79 r /i/patternB/len;
#X connect 1 0 5 0;
#X connect 2 0 5 0;
#X connect 3 0 5 0;
#X connect 4 0 5 0;
#X connect 5 0 7 0;
#X connect 5 1 6 1;
#X connect 5 1 13 0;
#X connect 6 0 21 1;
#X connect 7 0 6 0;
#X connect 8 0 10 0;
#X connect 10 0 11 0;
#X connect 10 1 12 1;
#X connect 11 0 12 0;
#X connect 12 0 7 0;
#X connect 14 0 31 0;
#X connect 15 0 21 0;
#X connect 15 0 32 0;
#X connect 15 1 44 0;
#X connect 20 0 24 0;
#X connect 20 1 25 0;
#X connect 20 2 26 0;
#X connect 20 3 27 0;
#X connect 20 4 28 0;
#X connect 20 5 29 0;
#X connect 20 6 30 0;
#X connect 20 7 16 0;
#X connect 20 8 17 0;
#X connect 20 9 18 0;
#X connect 20 10 19 0;
#X connect 21 0 43 0;
#X connect 23 0 33 0;
#X connect 24 0 15 0;
#X connect 25 0 15 0;
#X connect 26 0 15 0;
#X connect 27 0 15 0;
#X connect 28 0 15 0;
#X connect 29 0 15 0;
#X connect 30 0 15 0;
#X connect 31 0 20 0;
#X connect 32 0 40 0;
#X connect 33 0 14 0;
#X connect 33 0 43 1;
#X connect 33 0 44 1;
#X connect 36 0 9 0;
#X connect 36 0 8 0;
#X connect 37 0 38 0;
#X connect 37 0 32 1;
#X connect 39 0 5 0;
#X connect 40 0 4 0;
#X connect 40 1 3 0;
#X connect 40 2 2 0;
#X connect 40 3 1 0;
#X connect 40 4 42 0;
#X connect 40 5 39 0;
#X connect 40 6 41 0;
#X connect 41 0 5 0;
#X connect 42 0 5 0;
#X connect 48 0 37 0;
#X connect 49 0 33 1;
#X coords 0 637 1 636 160 50 0;
#X restore 220 33 pd patternizer_B;
#N canvas 666 56 638 529 patternizer_A 0;
#X msg 221 172 8, f 2;
#X msg 192 172 4, f 2;
#X msg 163 172 2, f 2;
#X msg 134 172 1, f 2;
#X obj 204 235 t b f;
#X obj 216 342 / 1;
#X floatatom 147 296 5 0 0 0 ms/beat - -;
#X floatatom 38 138 4 0 0 0 bpm - -;
#X obj 45 46 bng 10 250 50 0 empty empty empty 17 7 0 10 -262144 -1
-1;
#X obj 74 172 t b f;
#X msg 39 207 60000;
#X obj 86 243 / 1;
#X floatatom 246 265 3 0 0 1 th_note - -;
#X obj 362 82 bng 10 250 50 0 empty empty empty 17 7 0 8 -262144 -1
-1;
#X obj 423 243 t b f;
#X msg 476 174 8, f 2;
#X msg 498 174 9, f 2;
#X msg 521 174 10, f 2;
#X msg 544 174 11, f 2;
#X obj 362 132 sel 0 1 2 3 4 5 6 7 8 9 10;
#X obj 423 271 f;
#X text 42 89 increase RANDOM value for more chance of 0;
#X obj 454 43 bng 15 250 50 0 empty patternA_new new -8 -7 0 10 -262144
-1 -1;
#X msg 322 174 0, f 2;
#X msg 345 174 1, f 2;
#X msg 367 174 2, f 2;
#X msg 389 174 3, f 2;
#X msg 410 174 4, f 2;
#X msg 432 174 5, f 2;
#X msg 454 174 6, f 2;
#X obj 362 112 random 7;
#X obj 177 110 random 8;
#N canvas 0 180 440 387 newPattern 0;
#X msg 72 93 1;
#X obj 71 184 + 1;
#X floatatom 71 204 5 0 0 0 - - -;
#X obj 109 183 i;
#X msg 148 119 0;
#X obj 71 223 mod 8;
#X floatatom 71 243 5 0 0 0 - - -;
#X obj 157 212 sel 0;
#X msg 109 86 0;
#X msg 209 107 4;
#X msg 223 135 8;
#X msg 215 164 16;
#X obj 262 84 sel 0 1 2;
#X obj 38 27 inlet newPatt;
#X obj 202 29 inlet pattLen;
#X obj 71 262 outlet value;
#X obj 69 141 metro 10;
#X connect 0 0 16 0;
#X connect 1 0 2 0;
#X connect 1 0 3 1;
#X connect 2 0 5 0;
#X connect 3 0 1 0;
#X connect 4 0 3 1;
#X connect 4 0 8 0;
#X connect 5 0 6 0;
#X connect 6 0 7 0;
#X connect 6 0 15 0;
#X connect 7 0 4 0;
#X connect 8 0 16 0;
#X connect 9 0 5 1;
#X connect 10 0 5 1;
#X connect 11 0 5 1;
#X connect 12 0 9 0;
#X connect 12 1 10 0;
#X connect 12 2 11 0;
#X connect 13 0 0 0;
#X connect 14 0 12 0;
#X connect 16 0 3 0;
#X restore 454 67 pd newPattern;
#N canvas 0 23 450 278 (subpatch) 0;
#X array /g/t/pattern_A 16 float 3;
#A 0 1000 1000 125 2000 2000 2000 1000 250 0 75 0 0 0 0 0 0;
#X coords 0 3000 16 -100 125 50 1 0 0;
#X restore 465 388 graph;
#N canvas 0 23 450 278 (subpatch) 0;
#X array /g/t/notes_A 16 float 3;
#A 0 4 3 2 2 2 2 2 2 2 2 1 6 4 0 5 2;
#X coords 0 12 16 -1 125 50 1 0 0;
#X restore 464 453 graph;
#X obj 512 88 s ro.Pitch;
#X obj 476 8 r pattLen;
#X obj 38 27 r mtBpm;
#X obj 288 39 + 6;
#X floatatom 300 61 5 0 0 0 - - -;
#X obj 473 326 tabwrite /g/t/pattern_A;
#X obj 495 350 tabwrite /g/t/notes_A;
#X msg 270 173 0.5, f 2;
#X obj 177 130 sel 0 1 2 3 4 5;
#X msg 297 174 0, f 2;
#X msg 40 472 \; /g/t/notes_A 0 1 2 3 4 5 6 7 8 9 10 11 12 13 14 15
16 \;;
#X msg 40 441 \; /g/t/pattern_A 0 50 50 50 50 50 50 50 50 50 50 50
50 50 50 50 50 \;, f 66;
#X msg 245 172 0.5, f 2;
#X obj 475 42 r /i/patternA/len;
#X obj 252 12 r /i/patternA/dens;
#X connect 0 0 4 0;
#X connect 1 0 4 0;
#X connect 2 0 4 0;
#X connect 3 0 4 0;
#X connect 4 0 6 0;
#X connect 4 1 5 1;
#X connect 4 1 12 0;
#X connect 5 0 20 1;
#X connect 6 0 5 0;
#X connect 7 0 9 0;
#X connect 9 0 10 0;
#X connect 9 1 11 1;
#X connect 10 0 11 0;
#X connect 11 0 6 0;
#X connect 13 0 30 0;
#X connect 14 0 20 0;
#X connect 14 0 31 0;
#X connect 14 1 41 0;
#X connect 19 0 23 0;
#X connect 19 1 24 0;
#X connect 19 2 25 0;
#X connect 19 3 26 0;
#X connect 19 4 27 0;
#X connect 19 5 28 0;
#X connect 19 6 29 0;
#X connect 19 7 15 0;
#X connect 19 8 16 0;
#X connect 19 9 17 0;
#X connect 19 10 18 0;
#X connect 20 0 40 0;
#X connect 22 0 32 0;
#X connect 23 0 14 0;
#X connect 24 0 14 0;
#X connect 25 0 14 0;
#X connect 26 0 14 0;
#X connect 27 0 14 0;
#X connect 28 0 14 0;
#X connect 29 0 14 0;
#X connect 30 0 19 0;
#X connect 31 0 43 0;
#X connect 32 0 40 1;
#X connect 32 0 41 1;
#X connect 32 0 13 0;
#X connect 37 0 8 0;
#X connect 37 0 7 0;
#X connect 38 0 39 0;
#X connect 38 0 31 1;
#X connect 42 0 4 0;
#X connect 43 0 3 0;
#X connect 43 1 2 0;
#X connect 43 2 1 0;
#X connect 43 3 0 0;
#X connect 43 4 47 0;
#X connect 43 5 42 0;
#X connect 43 6 44 0;
#X connect 44 0 4 0;
#X connect 47 0 4 0;
#X connect 48 0 32 1;
#X connect 49 0 38 0;
#X coords 0 529 1 528 160 50 0;
#X restore 220 15 pd patternizer_A;
#X floatatom 113 272 3 0 0 0 - - -;
#X obj 113 341 ctlout, f 8;
#X text 138 273 value;
#X text 172 320 channel;
#X obj 116 203 hsl 128 15 0 127 0 0 /c/mel/vibrato /c/mel/vibrato mel_vibrato
-2 -8 0 10 -262144 -1 -1 0 1;
#X obj 113 225 r /c/mel/vibrato;
#N canvas 827 175 351 396 declares-init-parkingLot 0;
#X obj 16 38 declare -path ./else;
#N canvas 166 23 1071 746 registered_vars 0;
#X obj 266 159 cnv 15 210 20 empty empty BASS 20 10 0 14 -228856 -45076
0;
#X obj 264 274 ds_reg urgante /i/bass/chan;
#X obj 267 181 ds_reg urgante /i/bass/on;
#X obj 266 198 ds_reg urgante /i/bass/pattLen;
#X obj 266 217 ds_reg urgante /i/bass/duration;
#X obj 265 235 ds_reg urgante /i/bass/mode;
#X obj 25 183 ds_reg urgante /i/mel/on;
#X obj 25 201 ds_reg urgante /i/mel/pattLen;
#X obj 25 219 ds_reg urgante /i/mel/duration;
#X obj 25 237 ds_reg urgante /i/mel/mode;
#X obj 25 255 ds_reg urgante /i/mel/root;
#X obj 25 273 ds_reg urgante /i/mel/chan;
#X obj 265 254 ds_reg urgante /i/bass/oct;
#X obj 23 379 ds_reg urgante /i/kk/on;
#X obj 23 397 ds_reg urgante /i/kk/ghost;
#X obj 23 433 ds_reg urgante /i/kk/ghostVel;
#X obj 23 415 ds_reg urgante /i/kk/ghostFact;
#X obj 22 451 ds_reg urgante /i/kk/ghostOn;
#X obj 21 525 ds_reg urgante /i/kk/disp;
#X obj 21 507 ds_reg urgante /i/kk/off;
#X obj 22 489 ds_reg urgante /i/kk/len;
#X obj 23 471 ds_reg urgante /i/kk/hits;
#X obj 22 556 ds_reg urgante /i/sn/on;
#X obj 22 573 ds_reg urgante /i/sn/ghost;
#X obj 22 591 ds_reg urgante /i/sn/ghostFact;
#X obj 22 609 ds_reg urgante /i/sn/ghostVel;
#X obj 21 627 ds_reg urgante /i/sn/ghostOn;
#X obj 22 646 ds_reg urgante /i/sn/hits;
#X obj 21 665 ds_reg urgante /i/sn/len;
#X obj 20 683 ds_reg urgante /i/sn/off;
#X obj 20 701 ds_reg urgante /i/sn/disp;
#X obj 225 399 ds_reg urgante /i/hh/on;
#X obj 225 453 ds_reg urgante /i/hh/hits;
#X obj 225 472 ds_reg urgante /i/hh/len;
#X obj 225 490 ds_reg urgante /i/hh/off;
#X obj 226 508 ds_reg urgante /i/hh/disp;
#X obj 225 418 ds_reg urgante /i/hh/openNbr;
#X obj 225 435 ds_reg urgante /i/hh/pedalNbr;
#X obj 227 579 ds_reg urgante /i/perc/pattLen;
#X obj 227 599 ds_reg urgante /i/perc/duration;
#X obj 227 618 ds_reg urgante /i/perc/shfLen;
#X obj 227 636 ds_reg urgante /i/perc/shfRshf;
#X obj 227 654 ds_reg urgante /i/perc/shfOn;
#X obj 264 293 ds_reg urgante /i/bass/shfLen;
#X obj 264 311 ds_reg urgante /i/bass/shfRshf;
#X obj 264 329 ds_reg urgante /i/bass/shfOn;
#X obj 25 292 ds_reg urgante /i/mel/shfLen;
#X obj 25 310 ds_reg urgante /i/mel/shfRshf;
#X obj 25 328 ds_reg urgante /i/mel/shfOn;
#X obj 227 559 ds_reg urgante /i/perc/on;
#X obj 24 15 cnv 15 240 20 empty empty GLOBAL 20 10 0 14 -228856 -45076
0;
#X obj 25 59 ds_reg urgante /g/swing;
#X obj 25 41 ds_reg urgante /g/bpm;
#X obj 25 77 ds_reg urgante /g/root;
#X obj 514 182 ds_reg urgante /g/t/pattern_B table;
#X obj 514 201 ds_reg urgante /g/t/notes_B table;
#X obj 514 219 ds_reg urgante /g/t/pattern_A table;
#X obj 514 238 ds_reg urgante /g/t/notes_A table;
#X obj 514 39 ds_reg urgante /c/mel/vibrato;
#X obj 272 14 cnv 15 220 20 empty empty PAD 20 10 0 14 -228856 -45076
0;
#X obj 272 38 ds_reg urgante /i/pad/on;
#X obj 271 55 ds_reg urgante /i/pad/pattLen;
#X obj 271 74 ds_reg urgante /i/pad/duration;
#X obj 270 111 ds_reg urgante /i/pad/oct;
#X obj 269 131 ds_reg urgante /i/pad/chan;
#X obj 270 92 ds_reg urgante /i/pad/mode;
#X obj 24 160 cnv 15 220 20 empty empty MEL 20 10 0 14 -228856 -45076
0;
#X obj 514 13 cnv 15 220 20 empty empty CONTROL 20 10 0 14 -86853 -262144
0;
#X obj 514 158 cnv 15 200 20 empty empty DATA 20 10 0 14 -13330 -262144
0;
#X obj 21 353 cnv 15 440 20 empty empty DRUMSnPERC 20 10 0 14 -228856
-45076 0;
#X restore 19 100 pd registered_vars;
#X obj 16 60 declare -path ./kollabs-fq;
#N canvas 30 23 980 709 interface 0;
#X obj 228 576 bng 15 250 50 0 empty euHitsPlus r:euHitsPlus 17 7 0
10 -262144 -1 -1;
#X obj 228 594 bng 15 250 50 0 empty euHitsMinus r:euHitsMinus 17 7
0 10 -262144 -1 -1;
#X obj 227 538 bng 15 250 50 0 empty euOffsetPlus r:euOffsetPlus 17
7 0 10 -262144 -1 -1;
#X obj 227 557 bng 15 250 50 0 empty euOffsetMinus r:euOffsetMinus
17 7 0 10 -262144 -1 -1;
#X obj 228 630 bng 15 250 50 0 empty euBarLengthMinus r:euBarLengthMinus
17 7 0 10 -262144 -1 -1;
#X obj 228 612 bng 15 250 50 0 empty euBarLengthPlus r:euBarLengthPlus
17 7 0 10 -262144 -1 -1;
#X obj 356 393 fQupTick;
#X obj 472 544 bng 15 250 50 0 empty snHitsPlus r:snHitsPlus 17 7 0
10 -262144 -1 -1;
#X obj 472 558 bng 15 250 50 0 empty snHitsMinus r:snHitsMinus 17 7
0 10 -262144 -1 -1;
#X obj 472 573 bng 15 250 50 0 empty snOffsetPlus r:snOffsetPlus 17
7 0 10 -262144 -1 -1;
#X obj 472 589 bng 15 250 50 0 empty snOffsetMinus r:snOffsetMinus
17 7 0 10 -262144 -1 -1;
#X obj 330 588 s snHits;
#X obj 346 568 s snOffset;
#X obj 368 547 s snLength;
#X obj 262 393 fQupTick;
#X obj 263 419 fQupTick;
#X obj 264 447 fQupTick;
#X obj 356 419 fQupTick;
#X text 355 372 Snare;
#X text 221 396 hits;
#X text 208 420 offset;
#X text 208 450 length;
#X text 265 373 Kick;
#X obj 356 447 fQupTick;
#X obj 472 605 bng 15 250 50 0 empty snLengthPlus r:snLengthPlus 17
7 0 10 -262144 -1 -1;
#X obj 472 621 bng 15 250 50 0 empty snLengthMinus r:snLengthMinus
17 7 0 10 -262144 -1 -1;
#X obj 64 136 bng 15 250 50 0 empty rndHits hits 0 -7 0 8 -262144 -1
-1;
#X obj 63 162 bng 15 250 50 0 empty rndOffset off 0 -7 0 8 -262144
-1 -1;
#X obj 63 189 bng 15 250 50 0 empty rndLength len 0 -6 0 8 -262144
-1 -1;
#X obj 102 140 bng 15 250 50 0 empty rndSnHits snhts 0 -7 0 8 -262144
-1 -1;
#X obj 101 166 bng 15 250 50 0 empty rndSnOffset snoff 0 -7 0 8 -262144
-1 -1;
#X obj 101 193 bng 15 250 50 0 empty rndSnLength snlen 0 -6 0 8 -262144
-1 -1;
#X obj 450 394 fQupTick;
#X obj 717 533 bng 15 250 50 0 empty hhHitsPlus r:hhHitsPlus 17 7 0
10 -262144 -1 -1;
#X obj 717 547 bng 15 250 50 0 empty hhHitsMinus r:hhHitsMinus 17 7
0 10 -262144 -1 -1;
#X obj 717 562 bng 15 250 50 0 empty hhOffsetPlus r:hhOffsetPlus 17
7 0 10 -262144 -1 -1;
#X obj 717 578 bng 15 250 50 0 empty hhOffsetMinus r:hhOffsetMinus
17 7 0 10 -262144 -1 -1;
#X obj 450 420 fQupTick;
#X obj 450 448 fQupTick;
#X obj 717 594 bng 15 250 50 0 empty hhLengthPlus r:hhLengthPlus 17
7 0 10 -262144 -1 -1;
#X obj 717 610 bng 15 250 50 0 empty hhLengthMinus r:hhLengthMinus
17 7 0 10 -262144 -1 -1;
#X obj 142 140 bng 15 250 50 0 empty rndSn2Hits hhhts 0 -7 0 8 -262144
-1 -1;
#X obj 141 166 bng 15 250 50 0 empty rndSn2Offset hhoff 0 -7 0 8 -262144
-1 -1;
#X obj 141 193 bng 15 250 50 0 empty rndSn2Length hhlen 0 -6 0 8 -262144
-1 -1;
#X obj 613 576 s hhLength;
#X obj 600 599 s hhOffset;
#X obj 584 620 s hhHits;
#X text 449 373 HiHat;
#N canvas 194 50 506 517 emphasis-DISABLED 0;
#X obj 238 278 r length;
#X obj 234 39 fQupTick;
#X obj 234 65 fQupTick;
#X obj 150 168 bng 15 250 50 0 empty empty /3 5 -5 0 8 -262144 -1 -1
;
#X obj 130 168 bng 15 250 50 0 empty empty /2 3 -5 0 8 -262144 -1 -1
;
#X obj 171 168 bng 15 250 50 0 empty empty /4 3 -5 0 8 -262144 -1 -1
;
#X obj 46 372 s emphHits;
#X obj 37 395 s emphOffset;
#X obj 246 405 s emphLength;
#X obj 239 233 r emphSetLength;
#X obj 344 42 bng 15 250 50 0 empty rndEmHits emhts 0 -7 0 8 -262144
-1 -1;
#X obj 343 68 bng 15 250 50 0 empty rndEmOffset emoff 0 -7 0 8 -262144
-1 -1;
#X floatatom 174 407 5 0 0 0 - - -;
#X obj 174 333 * 1;
#X msg 144 243 0.5, f 1;
#X obj 110 168 bng 15 250 50 0 empty empty 1 3 -5 0 8 -262144 -1 -1
;
#X msg 124 269 1, f 1;
#X obj 174 355 int;
#X obj 251 101 hradio 15 1 0 4 empty empty 1_/2_/3_/4 0 -8 0 10 -262144
-1 -1 0;
#X msg 163 230 0.33, f 1;
#X msg 182 230 0.25, f 1;
#X obj 111 121 sel 0 1 2 3;
#X text 233 18 Emphasis DISABLED!;
#X connect 0 0 13 1;
#X connect 1 0 6 0;
#X connect 2 0 7 0;
#X connect 3 0 19 0;
#X connect 4 0 14 0;
#X connect 5 0 20 0;
#X connect 13 0 17 0;
#X connect 14 0 13 0;
#X connect 15 0 16 0;
#X connect 16 0 13 0;
#X connect 17 0 12 0;
#X connect 17 0 8 0;
#X connect 18 0 21 0;
#X connect 19 0 13 0;
#X connect 20 0 13 0;
#X connect 21 0 15 0;
#X connect 21 1 4 0;
#X connect 21 2 3 0;
#X connect 21 3 5 0;
#X restore 42 417 pd emphasis-DISABLED;
#X obj 91 586 s kkLength;
#X obj 61 605 s kkOffset;
#X obj 34 624 s kkHits;
#X obj 264 473 fQupTick;
#X obj 356 473 fQupTick;
#X obj 62 217 bng 15 250 50 0 empty rndLength kkDis 0 -6 0 8 -262144
-1 -1;
#X obj 101 219 bng 15 250 50 0 empty rndSnLength sndis 0 -6 0 8 -262144
-1 -1;
#X obj 450 474 fQupTick;
#X obj 141 219 bng 15 250 50 0 empty rndSn2Length hhdis 0 -6 0 8 -262144
-1 -1;
#X text 204 476 displace;
#X obj 228 665 bng 15 250 50 0 empty euDisplaceMinus r:euDisplaceMinus
17 7 0 10 -262144 -1 -1;
#X obj 228 647 bng 15 250 50 0 empty euDisplacePlus r:euDisplacePlus
17 7 0 10 -262144 -1 -1;
#X obj 127 568 s kkDisplace;
#X obj 390 526 s snDisplace;
#X obj 472 638 bng 15 250 50 0 empty snDisplacePlus r:snDisplacePlus
17 7 0 10 -262144 -1 -1;
#X obj 472 654 bng 15 250 50 0 empty snDisplaceMinus r:snDisplaceMinus
17 7 0 10 -262144 -1 -1;
#X obj 621 556 s hhDisplace;
#X obj 717 626 bng 15 250 50 0 empty hhDisplacePlus r:hhDisplacePlus
17 7 0 10 -262144 -1 -1;
#X obj 717 643 bng 15 250 50 0 empty hhDisplaceMinus r:hhDisplaceMinus
17 7 0 10 -262144 -1 -1;
#N canvas 614 110 450 300 setTestValues 0;
#X obj 119 58 r kkTestLength;
#X obj 88 80 r kkTestHits;
#X obj 57 102 r kkTestOffset;
#X obj 28 125 r kkTestDisplace;
#X obj 234 60 r snTestLength;
#X obj 203 82 r snTestHits;
#X obj 172 104 r snTestOffset;
#X obj 143 127 r snTestDisplace;
#X obj 354 61 r hhTestLength;
#X obj 323 83 r hhTestHits;
#X obj 292 105 r hhTestOffset;
#X obj 263 128 r hhTestDisplace;
#X obj 32 183 outlet kL;
#X obj 39 202 outlet kH;
#X obj 48 223 outlet kO;
#X obj 61 243 outlet kD;
#X obj 138 181 outlet sL;
#X obj 148 202 outlet sH;
#X obj 159 222 outlet sO;
#X obj 169 242 outlet sD;
#X obj 265 184 outlet hL;
#X obj 275 203 outlet hH;
#X obj 285 223 outlet hO;
#X obj 295 242 outlet hD;
#X connect 0 0 12 0;
#X connect 1 0 13 0;
#X connect 2 0 14 0;
#X connect 3 0 15 0;
#X connect 4 0 16 0;
#X connect 5 0 17 0;
#X connect 6 0 18 0;
#X connect 7 0 19 0;
#X connect 8 0 20 0;
#X connect 9 0 21 0;
#X connect 10 0 22 0;
#X connect 11 0 23 0;
#X restore 395 77 pd setTestValues;
#X f 29;
#X floatatom 248 169 3 0 0 0 - - -;
#X floatatom 275 163 3 0 0 0 - - -;
#X floatatom 305 154 3 0 0 0 - - -;
#X floatatom 334 147 3 0 0 0 - - -;
#X floatatom 364 147 3 0 0 0 - - -;
#X floatatom 391 141 3 0 0 0 - - -;
#X floatatom 421 132 3 0 0 0 - - -;
#X floatatom 450 125 3 0 0 0 - - -;
#X floatatom 487 151 3 0 0 0 - - -;
#X floatatom 514 145 3 0 0 0 - - -;
#X floatatom 544 136 3 0 0 0 - - -;
#X floatatom 573 129 3 0 0 0 - - -;
#X connect 0 0 14 0;
#X connect 1 0 14 1;
#X connect 2 0 15 0;
#X connect 3 0 15 1;
#X connect 4 0 16 1;
#X connect 5 0 16 0;
#X connect 6 0 11 0;
#X connect 7 0 6 0;
#X connect 8 0 6 1;
#X connect 9 0 17 0;
#X connect 10 0 17 1;
#X connect 14 0 51 0;
#X connect 15 0 50 0;
#X connect 16 0 49 0;
#X connect 17 0 12 0;
#X connect 23 0 13 0;
#X connect 24 0 23 0;
#X connect 25 0 23 1;
#X connect 32 0 46 0;
#X connect 33 0 32 0;
#X connect 34 0 32 1;
#X connect 35 0 37 0;
#X connect 36 0 37 1;
#X connect 37 0 45 0;
#X connect 38 0 44 0;
#X connect 39 0 38 0;
#X connect 40 0 38 1;
#X connect 52 0 61 0;
#X connect 53 0 62 0;
#X connect 56 0 65 0;
#X connect 59 0 52 1;
#X connect 60 0 52 0;
#X connect 63 0 53 0;
#X connect 64 0 53 1;
#X connect 66 0 56 0;
#X connect 67 0 56 1;
#X connect 68 0 69 0;
#X connect 68 1 70 0;
#X connect 68 2 71 0;
#X connect 68 3 72 0;
#X connect 68 4 73 0;
#X connect 68 5 74 0;
#X connect 68 6 75 0;
#X connect 68 7 76 0;
#X connect 68 8 77 0;
#X connect 68 9 78 0;
#X connect 68 10 79 0;
#X connect 68 11 80 0;
#X connect 69 0 16 2;
#X connect 70 0 14 2;
#X connect 71 0 15 2;
#X connect 72 0 52 2;
#X connect 73 0 23 2;
#X connect 74 0 6 2;
#X connect 75 0 17 2;
#X connect 76 0 53 2;
#X connect 77 0 38 2;
#X connect 78 0 32 2;
#X connect 79 0 37 2;
#X connect 80 0 56 2;
#X coords 0 709 1 708 340 130 0;
#X restore 122 214 pd interface;
#N canvas 395 161 656 503 init 0;
#X obj 41 72 loadbang;
#X obj 21 72 bng 15 250 50 0 empty empty empty 17 7 0 10 -262144 -1
-1;
#X obj 41 96 del 1000;
#X obj 41 118 t b b;
#X obj 41 233 del 2000;
#X msg 70 169 \; /ds/urgante/loadfile unnamed_preset.txt;
#X msg 41 275 \; /ds/urgante/scene 0;
#X connect 0 0 2 0;
#X connect 1 0 2 0;
#X connect 2 0 3 0;
#X connect 3 0 4 0;
#X connect 3 1 5 0;
#X connect 4 0 6 0;
#X restore 16 13 pd init;
#X obj 19 126 fq_midiIN;
#N canvas 0 23 450 300 scales 0;
#N canvas 0 0 450 300 (subpatch) 0;
#X array diatonicScale 15 float 3;
#A 0 0 2 4 5 7 9 11 12 14 16 17 19 21 23 24;
#X coords 0 24 15 0 200 140 1 0 0;
#X restore 166 63 graph;
#X obj 47 194 loadbang;
#X msg 47 235 \; diatonicScale 0 0 2 4 5 7 9 11 12 14 16 17 19 21 23
24 \;;
#X connect 1 0 2 0;
#X restore 20 157 pd scales;
#X obj 155 37 declare -path ./mrpeach;
#X text 155 22 mrpeach for MIDI files;
#X obj 145 123 kollabs-fq/ds_logic urgante;
#X obj 145 142 kollabs-fq/ds_scheduler urgante;
#X obj 145 160 kollabs-fq/ds_transition urgante;
#X restore 121 51 pd declares-init-parkingLot;
#X f 9;
#X msg 135 295 77, f 2;
#X msg 158 318 4, f 1;
#X obj 113 249 t f b b, f 8;
#X obj 33 43 sel 1;
#X obj 113 145 midisystemrealtime;
#X obj 107 17 Urgante_GUI;
#X obj 27 16 r onOff;
#N canvas 359 121 611 590 export_MIDI 0;
#X obj 321 41 bng 45 250 50 0 empty empty choose 5 23 0 8 -62784 -260818
-258699;
#X obj 50 280 tgl 45 0 empty empty record 2 23 0 8 -258699 -241291
-24198 0 1;
#X floatatom 358 527 15 0 0 0 tick - -;
#X obj 50 349 metro 2, f 9;
#X floatatom 102 327 5 0 0 0 - - -;
#X msg 101 306 2.005;
#X obj 321 97 savepanel;
#X obj 419 498 float;
#X msg 321 343 write \$1 \$2 \$3;
#X obj 473 334 pack 144 0 0, f 16;
#X obj 512 180 sel 0;
#X obj 470 207 t b f;
#X obj 473 299 f;
#X text 80 480 Martin Peach \, 2010;
#X obj 194 10 cnv 15 200 20 empty empty empty 20 12 0 14 -257985 -66577
0;
#X text 197 10 1: open a file for writing:;
#X obj 29 254 cnv 15 130 20 empty empty empty 20 12 0 14 -257985 -66577
0;
#X text 42 255 2: start recording;
#X obj 539 270 +;
#X msg 512 236 127;
#X msg 539 208 143;
#X obj 482 360 print note>;
#X text 103 456 REQUIRES: mrpeach;
#X obj 470 141 unpack f f f, f 14;
#X obj 7 392 cnv 15 300 20 empty empty empty 20 12 0 14 -257985 -66577
0;
#X msg 219 394 flush;
#X obj 76 68 tgl 15 0 empty empty empty 17 7 0 10 -262144 -1 -1 0 1
;
#X obj 76 91 sel 1;
#X obj 67 215 s onOff;
#X msg 76 113 1;
#X msg 219 121 0;
#X obj 52 135 t f f b b b;
#X obj 219 142 t b f f;
#X msg 258 269 proba.mid;
#X obj 321 310 pack s f f;
#X obj 364 463 mrpeach/midifile;
#X msg 22 43 0;
#X msg 349 246 0;
#X obj 347 370 r metroBang;
#X obj 346 393 bng 10 250 50 0 empty empty empty 17 7 0 10 -262144
-1 -1;
#X msg 378 228 4;
#X obj 488 74 r MIDIsn;
#X obj 484 57 r MIDIkk;
#X obj 14 2 r mt16ths;
#X obj 22 23 sel 14;
#X text 11 392 3: stop recording and save the file:;
#X obj 494 91 r MIDIhh;
#X floatatom 14 79 5 0 0 0 - - -;
#X obj 76 3 r testMIDIfile;
#X text 242 228 ticks per quarter note;
#X text 237 247 frames per second:;
#X obj 422 430 spigot;
#X msg 455 408 1, f 2;
#X text 485 413 ignore first bang;
#X text 471 429 notes begin on 2nd tic;
#X obj 470 5 r MIDIbass;
#X obj 475 22 r MIDImel;
#X obj 480 40 r MIDIpad;
#X obj 497 108 r MIDIperc;
#X connect 0 0 6 0;
#X connect 1 0 3 0;
#X connect 4 0 3 1;
#X connect 5 0 4 0;
#X connect 6 0 34 0;
#X connect 7 0 2 0;
#X connect 8 0 35 0;
#X connect 9 0 21 0;
#X connect 9 0 35 0;
#X connect 10 0 19 0;
#X connect 10 1 20 0;
#X connect 11 0 12 0;
#X connect 11 1 9 1;
#X connect 12 0 9 0;
#X connect 18 0 12 1;
#X connect 19 0 18 0;
#X connect 20 0 18 0;
#X connect 23 0 11 0;
#X connect 23 1 10 0;
#X connect 23 1 9 2;
#X connect 23 2 18 1;
#X connect 25 0 35 0;
#X connect 26 0 27 0;
#X connect 27 0 29 0;
#X connect 27 1 30 0;
#X connect 29 0 31 0;
#X connect 30 0 32 0;
#X connect 31 1 28 0;
#X connect 31 2 33 0;
#X connect 31 3 37 0;
#X connect 31 4 40 0;
#X connect 32 0 25 0;
#X connect 32 1 28 0;
#X connect 32 2 51 1;
#X connect 33 0 34 0;
#X connect 34 0 8 0;
#X connect 35 1 7 1;
#X connect 35 2 7 0;
#X connect 37 0 34 1;
#X connect 38 0 39 0;
#X connect 38 0 51 0;
#X connect 38 0 52 0;
#X connect 40 0 34 2;
#X connect 41 0 23 0;
#X connect 42 0 23 0;
#X connect 43 0 47 0;
#X connect 43 0 44 0;
#X connect 44 0 36 0;
#X connect 46 0 23 0;
#X connect 48 0 26 0;
#X connect 51 0 35 0;
#X connect 52 0 51 1;
#X connect 55 0 23 0;
#X connect 56 0 23 0;
#X connect 57 0 23 0;
#X connect 58 0 23 0;
#X restore 341 127 pd export_MIDI;
#X obj 18 156 s metroBang;
#X text 161 297 controller nbr;
#N canvas 81 45 981 686 calc_note_durations 0;
#X obj 473 14 r /g/bpm;
#X obj 473 98 / 60;
#X obj 535 113 nbx 5 10 -1e+37 1e+37 0 0 empty empty beats_per_second
50 6 0 9 -262144 -1 -1 1.66667 256;
#X obj 473 66 f;
#X obj 538 34 bng 15 250 50 0 empty empty empty 17 7 0 10 -262144 -1
-1;
#X obj 535 293 nbx 5 10 -1e+37 1e+37 0 0 empty empty ms_1/8 50 6 0
9 -262144 -1 -1 300 256;
#X obj 473 278 / 2;
#X obj 561 325 nbx 5 10 -1e+37 1e+37 0 0 empty empty ms_1/8_dot 50
6 0 9 -262144 -1 -1 450 256;
#X obj 488 310 * 1.5;
#X obj 561 353 nbx 5 10 -1e+37 1e+37 0 0 empty empty ms_1/8_triplet
50 6 0 9 -262144 -1 -1 100 256;
#X obj 488 338 / 3;
#X obj 535 385 nbx 5 10 -1e+37 1e+37 0 0 empty empty ms_1/16 50 6 0
9 -262144 -1 -1 150 256;
#X obj 473 370 / 2;
#X obj 561 417 nbx 5 10 -1e+37 1e+37 0 0 empty empty ms_1/16_dot 50
6 0 9 -262144 -1 -1 225 256;
#X obj 488 402 * 1.5;
#X obj 561 445 nbx 5 10 -1e+37 1e+37 0 0 empty empty ms_1/16_triplet
50 6 0 9 -262144 -1 -1 50 256;
#X obj 488 430 / 3;
#X obj 535 481 nbx 5 10 -1e+37 1e+37 0 0 empty empty ms_1/32 50 6 0
9 -262144 -1 -1 75 256;
#X obj 473 466 / 2;
#X obj 561 513 nbx 5 10 -1e+37 1e+37 0 0 empty empty ms_1/32_dot 50
6 0 9 -262144 -1 -1 112.5 256;
#X obj 488 498 * 1.5;
#X obj 561 541 nbx 5 10 -1e+37 1e+37 0 0 empty empty ms_1/32_triplet
50 6 0 9 -262144 -1 -1 25 256;
#X obj 488 526 / 3;
#X obj 535 580 nbx 5 10 -1e+37 1e+37 0 0 empty empty ms_1/64 50 6 0
9 -262144 -1 -1 37.5 256;
#X obj 473 565 / 2;
#X obj 561 612 nbx 5 10 -1e+37 1e+37 0 0 empty empty ms_1/64_dot 50
6 0 9 -262144 -1 -1 56.25 256;
#X obj 488 597 * 1.5;
#X obj 561 640 nbx 5 10 -1e+37 1e+37 0 0 empty empty ms_1/64_triplet
50 6 0 9 -262144 -1 -1 12.5 256;
#X obj 488 625 / 3;
#X msg 569 34 60;
#X msg 607 34 120;
#X obj 539 81 nbx 3 15 -1e+37 1e+37 0 0 empty empty bpm 45 9 0 12 -262144
-1 -1 100 256;
#X obj 535 185 nbx 5 10 -1e+37 1e+37 0 0 empty empty ms_1/4 50 6 0
9 -262144 -1 -1 600 256;
#X obj 561 217 nbx 5 10 -1e+37 1e+37 0 0 empty empty ms_1/4_dot 50
6 0 9 -262144 -1 -1 900 256;
#X obj 488 202 * 1.5;
#X obj 561 245 nbx 5 10 -1e+37 1e+37 0 0 empty empty ms_1/4_triplet
50 6 0 9 -262144 -1 -1 200 256;
#X obj 488 230 / 3;
#X obj 473 170 pow -1;
#X obj 91 200 nbx 5 10 -1e+37 1e+37 0 0 empty empty ms_1/2 50 6 0 9
-262144 -1 -1 1200 256;
#X obj 117 232 nbx 5 10 -1e+37 1e+37 0 0 empty empty ms_1/2_dot 50
6 0 9 -262144 -1 -1 1800 256;
#X obj 44 217 * 1.5;
#X obj 117 260 nbx 5 10 -1e+37 1e+37 0 0 empty empty ms_1/2_triplet
50 6 0 9 -262144 -1 -1 400 256;
#X obj 44 245 / 3;
#X obj 91 292 nbx 5 10 -1e+37 1e+37 0 0 empty empty ms_whole 50 6 0
9 -262144 -1 -1 2400 256;
#X obj 117 324 nbx 5 10 -1e+37 1e+37 0 0 empty empty ms_whole_dot 50
6 0 9 -262144 -1 -1 3600 256;
#X obj 44 309 * 1.5;
#X obj 117 352 nbx 5 10 -1e+37 1e+37 0 0 empty empty ms_whole_triplet
50 6 0 9 -262144 -1 -1 800 256;
#X obj 44 337 / 3;
#X obj 29 185 * 2;
#X obj 29 277 * 2;
#X obj 473 127 / 1000;
#X obj 534 142 nbx 5 10 -1e+37 1e+37 0 0 empty empty beats_per_ms 50
6 0 9 -262144 -1 -1 0.00166667 256;
#X obj 536 12 cnv 15 100 20 empty empty test 20 12 0 14 -233017 -66577
0;
#X obj 725 185 s /g/duration_4th;
#X obj 725 217 s /g/duration_4th_dot;
#X obj 725 245 s /g/duration_4th_triplet;
#X obj 725 293 s /g/duration_8th;
#X obj 725 325 s /g/duration_8th_dot;
#X obj 726 353 s /g/duration_8th_triplet;
#X obj 726 385 s /g/duration_16th;
#X obj 726 416 s /g/duration_16th_dot;
#X obj 727 445 s /g/duration_16th_triplet;
#X obj 727 481 s /g/duration_32nd;
#X obj 727 512 s /g/duration_32nd_dot;
#X obj 727 541 s /g/duration_32nd_triplet;
#X obj 727 580 s /g/duration_64th;
#X obj 727 611 s /g/duration_64th_dot;
#X obj 727 639 s /g/duration_64th_triplet;
#X obj 260 200 s /g/duration_half;
#X obj 260 232 s /g/duration_half_dot;
#X obj 260 260 s /g/duration_half_triplet;
#X obj 260 292 s /g/duration_whole;
#X obj 260 324 s /g/duration_whole_dot;
#X obj 260 352 s /g/duration_whole_triplet;
#X connect 0 0 3 0;
#X connect 1 0 2 0;
#X connect 1 0 50 0;
#X connect 3 0 31 0;
#X connect 3 0 1 0;
#X connect 4 0 3 0;
#X connect 6 0 5 0;
#X connect 6 0 8 0;
#X connect 6 0 10 0;
#X connect 6 0 12 0;
#X connect 6 0 56 0;
#X connect 8 0 7 0;
#X connect 8 0 57 0;
#X connect 10 0 9 0;
#X connect 10 0 58 0;
#X connect 12 0 11 0;
#X connect 12 0 14 0;
#X connect 12 0 16 0;
#X connect 12 0 18 0;
#X connect 12 0 59 0;
#X connect 14 0 13 0;
#X connect 14 0 60 0;
#X connect 16 0 15 0;
#X connect 16 0 61 0;
#X connect 18 0 17 0;
#X connect 18 0 20 0;
#X connect 18 0 22 0;
#X connect 18 0 24 0;
#X connect 18 0 62 0;
#X connect 20 0 19 0;
#X connect 20 0 63 0;
#X connect 22 0 21 0;
#X connect 22 0 64 0;
#X connect 24 0 23 0;
#X connect 24 0 26 0;
#X connect 24 0 28 0;
#X connect 24 0 65 0;
#X connect 26 0 25 0;
#X connect 26 0 66 0;
#X connect 28 0 27 0;
#X connect 28 0 67 0;
#X connect 29 0 3 0;
#X connect 30 0 3 0;
#X connect 34 0 33 0;
#X connect 34 0 54 0;
#X connect 36 0 35 0;
#X connect 36 0 55 0;
#X connect 37 0 32 0;
#X connect 37 0 34 0;
#X connect 37 0 36 0;
#X connect 37 0 6 0;
#X connect 37 0 48 0;
#X connect 37 0 53 0;
#X connect 40 0 39 0;
#X connect 40 0 69 0;
#X connect 42 0 41 0;
#X connect 42 0 70 0;
#X connect 45 0 44 0;
#X connect 45 0 72 0;
#X connect 47 0 46 0;
#X connect 47 0 73 0;
#X connect 48 0 38 0;
#X connect 48 0 40 0;
#X connect 48 0 42 0;
#X connect 48 0 49 0;
#X connect 48 0 68 0;
#X connect 49 0 43 0;
#X connect 49 0 45 0;
#X connect 49 0 47 0;
#X connect 49 0 71 0;
#X connect 50 0 37 0;
#X connect 50 0 51 0;
#X restore 328 232 pd calc_note_durations;
#X obj 370 182 soundsystem;
#N canvas 0 23 450 300 sampler 1;
#N canvas 29 194 685 492 playHiHat 0;
#X obj 187 208 soundfiler;
#X msg 141 251 sr 44100;
#X text 212 251 adjust file samplerate (Hz \, default 22050);
#X obj 60 360 s_playtable2;
#X obj 182 42 loadbang;
#X obj 60 42 inlet bang;
#X obj 138 418 outlet~ R;
#X obj 60 418 outlet~ L;
#X msg 60 132 play-hihat;
#X obj 216 113 table play-hihat-1;
#X obj 216 135 table play-hihat-2;
#X msg 201 160 read -resize auroogoHHcl.wav play-hihat-1 play-hihat-2
;
#X msg 230 308 read -resize auClap.wav play-hihat-1 play-hihat-2;
#X msg 187 182 read -resize orHC.wav play-hihat-1 play-hihat-2;
#X obj 311 364 s_playtable2;
#X obj 389 422 outlet~ R;
#X obj 311 422 outlet~ L;
#X connect 1 0 3 1;
#X connect 3 0 7 0;
#X connect 3 0 6 0;
#X connect 4 0 1 0;
#X connect 4 0 13 0;
#X connect 5 0 8 0;
#X connect 8 0 3 0;
#X connect 13 0 0 0;
#X connect 14 0 16 0;
#X connect 14 1 15 0;
#X restore 261 151 pd playHiHat;
#N canvas 0 22 632 439 playSnare 0;
#X obj 193 199 soundfiler;
#X msg 147 244 sr 44100;
#X text 218 244 adjust file samplerate (Hz \, default 22050);
#X obj 66 339 s_playtable2;
#X obj 181 49 loadbang;
#X obj 66 49 inlet bang;
#X obj 144 395 outlet~ R;
#X obj 66 395 outlet~ L;
#X obj 254 108 table play-snare-1;
#X obj 254 130 table play-snare-2;
#X msg 66 138 play-snare;
#X msg 215 150 read -resize auroogoSN.wav play-snare-1 play-snare-2
;
#X msg 203 298 read -resize auHIbongo.wav play-snare-1 play-snare-2
;
#X msg 192 172 read -resize orSN.wav play-snare-1 play-snare-2;
#X obj 293 341 s_playtable2;
#X obj 371 397 outlet~ R;
#X obj 293 397 outlet~ L;
#X connect 1 0 3 1;
#X connect 3 0 7 0;
#X connect 3 0 6 0;
#X connect 4 0 1 0;
#X connect 4 0 13 0;
#X connect 5 0 10 0;
#X connect 10 0 3 0;
#X connect 13 0 0 0;
#X connect 14 0 16 0;
#X connect 14 1 15 0;
#X restore 259 131 pd playSnare;
#N canvas 256 255 609 433 playKick 0;
#X obj 177 191 soundfiler;
#X msg 141 225 sr 44100;
#X obj 60 270 s_playtable2;
#X obj 177 40 loadbang;
#X obj 60 41 inlet bang;
#X obj 134 326 outlet~ R;
#X obj 60 326 outlet~ L;
#X obj 275 94 table play-kick-1;
#X obj 275 116 table play-kick-2;
#X msg 218 289 read -resize auroogoKK.wav play-kick-1 play-kick-2;
#X msg 60 134 play-kick;
#X msg 208 262 read -resize auLObongo.wav play-kick-1 play-kick-2;
#X msg 177 163 read -resize orBD.wav play-kick-1 play-kick-2;
#X obj 271 320 s_playtable2;
#X obj 345 376 outlet~ R;
#X obj 271 376 outlet~ L;
#X connect 1 0 2 1;
#X connect 2 0 6 0;
#X connect 2 0 5 0;
#X connect 3 0 1 0;
#X connect 3 0 12 0;
#X connect 4 0 10 0;
#X connect 10 0 2 0;
#X connect 12 0 0 0;
#X connect 13 0 15 0;
#X connect 13 1 14 0;
#X restore 259 110 pd playKick;
#X restore 361 312 pd sampler;
#X connect 0 0 2 0;
#X connect 1 0 2 1;
#X connect 2 0 29 0;
#X connect 2 1 11 0;
#X connect 2 2 11 1;
#X connect 14 0 15 0;
#X connect 19 0 23 0;
#X connect 21 0 15 1;
#X connect 22 0 15 2;
#X connect 23 0 14 0;
#X connect 23 1 21 0;
#X connect 23 2 22 0;
#X connect 24 0 0 0;
#X connect 24 1 1 0;
#X connect 27 0 24 0;
