#N struct 14581-symarray float x array symbols 14581-sym;
#N struct 14581-sym symbol name float on;
#N canvas 870 324 675 411 12;
#X obj 42 75 s_fmbass fmbass;
#X obj 42 19 r MIDIbass;
#X obj 175 70 s_303 my303;
#X obj 176 20 r MIDImel;
#X obj 296 71 s_rhodey mypiano;
#X obj 296 19 r MIDIpad;
#X obj 297 120 *~ 0.5;
#X obj 310 95 hsl 60 15 0.005 0.5 0 1 empty empty empty -2 -8 0 10
-262144 -1 -1 900 1;
#X obj 175 114 *~ 0.5;
#X obj 200 93 hsl 60 15 0.005 0.5 0 1 empty empty empty -2 -8 0 10
-262144 -1 -1 2400 1;
#X obj 42 123 *~ 0.5;
#X obj 53 99 hsl 60 15 0.005 0.5 0 1 empty empty empty -2 -8 0 10 -262144
-1 -1 1700 1;
#N canvas 475 138 450 300 fmbass_ctrl 0;
#X obj 89 127 g_hsl A 0 1;
#X obj 89 159 g_hsl D 0 1;
#X obj 89 192 g_hsl S 0 1;
#X obj 89 225 g_hsl R 0 1;
#X msg 89 30 symbol reset;
#X obj 89 91 g_hsl pluck 0 1;
#X obj 89 255 outlet;
#X connect 0 0 1 0;
#X connect 1 0 2 0;
#X connect 2 0 3 0;
#X connect 3 0 6 0;
#X connect 4 0 5 0;
#X connect 5 0 0 0;
#X restore 51 45 pd fmbass_ctrl;
#N canvas 796 371 386 450 rhodey_ctrl 0;
#X obj 30 18 hsl 128 15 0 1 0 1 empty empty tone_(0...1) 20 7 1 10
-262144 -1 -1 2100 1;
#X msg 27 40 tone \$1;
#X floatatom 62 69 5 0 0 0 - - -;
#X floatatom 95 120 5 0 0 0 - - -;
#X floatatom 122 222 5 0 0 0 - - -;
#X msg 122 244 mod \$1;
#X msg 62 90 vib-freq \$1;
#X msg 95 142 vib-depth \$1;
#X floatatom 126 273 5 0 127 0 - - -;
#X msg 126 295 adsr24 \$1;
#X floatatom 115 173 5 0 0 0 - - -;
#X msg 115 195 decay \$1;
#X obj 81 372 outlet;
#X connect 0 0 1 0;
#X connect 1 0 12 0;
#X connect 2 0 6 0;
#X connect 3 0 7 0;
#X connect 4 0 5 0;
#X connect 5 0 12 0;
#X connect 6 0 12 0;
#X connect 7 0 12 0;
#X connect 8 0 9 0;
#X connect 9 0 12 0;
#X connect 10 0 11 0;
#X connect 11 0 12 0;
#X restore 308 44 pd rhodey_ctrl;
#X obj 42 150 throw~ out;
#X obj 160 140 throw~ out;
#X obj 278 145 throw~ out;
#X obj 40 235 unpack f f f;
#X obj 44 208 r MIDIkk;
#X obj 155 230 unpack f f f;
#X obj 155 208 r MIDIsn;
#X obj 264 222 r MIDIhh;
#X obj 154 303 *~ 0.5;
#X obj 165 279 hsl 60 15 0.005 0.9 0 1 empty empty empty -2 -8 0 10
-262144 -1 -1 5900 1;
#X obj 38 301 *~ 0.5;
#X obj 52 281 hsl 60 15 0.005 0.9 0 1 empty empty empty -2 -8 0 10
-262144 -1 -1 5900 1;
#X obj 263 304 *~ 0.5;
#X obj 274 282 hsl 60 15 0.005 0.9 0 1 empty empty empty -2 -8 0 10
-262144 -1 -1 3300 1;
#N canvas 848 523 272 362 playSN 0;
#X msg 93 218 sr 44100;
#X obj 93 187 loadbang;
#X obj 64 262 s_playtable;
#X obj 67 49 inlet velocity;
#X obj 67 69 sel 0;
#X obj 65 297 outlet~ mono;
#X obj 66 99 / 127;
#X msg 65 149 perc-11 \$1;
#X connect 0 0 2 1;
#X connect 1 0 0 0;
#X connect 2 0 5 0;
#X connect 3 0 4 0;
#X connect 4 1 6 0;
#X connect 6 0 7 0;
#X connect 7 0 2 0;
#X restore 154 251 pd playSN;
#N canvas 278 521 230 345 playKK 1;
#X msg 80 189 sr 44100;
#X obj 81 167 loadbang;
#X obj 64 221 s_playtable;
#X obj 67 49 inlet velocity;
#X obj 67 69 sel 0;
#X obj 64 244 outlet~ mono;
#X obj 66 99 / 127;
#X msg 66 138 perc-10 \$1;
#X connect 0 0 2 1;
#X connect 1 0 0 0;
#X connect 2 0 5 0;
#X connect 3 0 4 0;
#X connect 4 1 6 0;
#X connect 6 0 7 0;
#X connect 7 0 2 0;
#X restore 39 259 pd playKK;
#N canvas 246 343 480 504 playHH 0;
#X msg 307 358 sr 44100;
#X obj 307 334 loadbang;
#X obj 232 389 s_playtable;
#X floatatom 116 250 5 0 0 0 - - -;
#X obj 67 202 sel 0;
#X obj 234 421 outlet~ mono;
#X obj 66 232 / 127;
#X obj 68 16 inlet midi;
#X obj 67 63 route 42 44 46;
#X obj 67 140 unpack f f;
#X obj 98 119 unpack f f;
#X obj 130 95 unpack f f;
#X floatatom 246 251 5 0 0 0 - - -;
#X obj 197 203 sel 0;
#X obj 196 233 / 127;
#X floatatom 370 250 5 0 0 0 - - -;
#X obj 321 202 sel 0;
#X obj 320 232 / 127;
#X obj 332 258 / 2;
#X text 188 268 temporary bc sample is too loud;
#X msg 66 284 perc-12 \$1;
#X msg 196 285 perc-13 \$1;
#X msg 320 284 perc-14 \$1;
#X connect 0 0 2 1;
#X connect 1 0 0 0;
#X connect 2 0 5 0;
#X connect 4 1 6 0;
#X connect 6 0 3 0;
#X connect 6 0 20 0;
#X connect 7 0 8 0;
#X connect 8 0 9 0;
#X connect 8 1 10 0;
#X connect 8 2 11 0;
#X connect 9 0 4 0;
#X connect 10 0 13 0;
#X connect 11 0 16 0;
#X connect 13 1 14 0;
#X connect 14 0 12 0;
#X connect 14 0 21 0;
#X connect 16 1 17 0;
#X connect 17 0 15 0;
#X connect 17 0 18 0;
#X connect 18 0 22 0;
#X connect 20 0 2 0;
#X connect 21 0 2 0;
#X connect 22 0 2 0;
#X restore 263 257 pd playHH;
#X obj 263 324 throw~ out;
#X obj 154 323 throw~ out;
#X obj 38 332 throw~ out;
#N canvas 325 337 500 417 303_ctrl 0;
#X obj 32 179 g_hsl A 0 1;
#X obj 32 211 g_hsl D 0 1;
#X obj 32 244 g_hsl S 0 1;
#X obj 32 277 g_hsl R 0 1;
#X obj 32 79 g_hsl cutoff 0 1;
#X obj 32 113 g_hsl q 0 1;
#X obj 32 146 g_hsl mod 0 1;
#X msg 32 23 reset;
#X text 94 24 saw square;
#X obj 32 48 g_hradio waveform 2;
#X obj 204 341 outlet;
#X obj 313 31 loadbang;
#X msg 335 89 q 0.5;
#X msg 313 147 cutoff 0.7;
#X msg 326 117 waveform 1;
#X obj 313 62 bng 15 250 50 0 empty empty empty 17 7 0 10 -262144 -1
-1;
#X connect 0 0 1 0;
#X connect 1 0 2 0;
#X connect 2 0 3 0;
#X connect 3 0 10 0;
#X connect 4 0 5 0;
#X connect 5 0 6 0;
#X connect 6 0 0 0;
#X connect 7 0 9 0;
#X connect 9 0 4 0;
#X connect 11 0 15 0;
#X connect 12 0 10 0;
#X connect 13 0 10 0;
#X connect 14 0 10 0;
#X connect 15 0 12 0;
#X connect 15 0 13 0;
#X connect 15 0 14 0;
#X restore 190 45 pd 303_ctrl;
#X obj 386 219 r MIDIperc;
#X obj 386 296 *~ 0.5;
#X obj 397 274 hsl 60 15 0.005 0.9 0 1 empty empty empty -2 -8 0 10
-262144 -1 -1 3100 1;
#X obj 386 316 throw~ out;
#N canvas 0 63 573 480 load_kit 0;
#X msg 113 87 print;
#X msg 133 117 dump;
#X floatatom 173 196 5 0 0 1 Lookup - -;
#X symbolatom 73 326 10 0 0 0 - - -;
#X obj 244 326 print;
#X msg 153 166 size \$1;
#X floatatom 153 147 5 0 0 0 - - -;
#X text 207 151 Size <index>: report size of table at <index> in samples
to 2nd outlet.;
#X text 174 113 Dump the current mapping to the second outlet as lists
of "<index> <table>";
#X text 154 86 Print the current mapping.;
#X msg 93 57 open kit_perc perc_kit.txt;
#X obj 73 266 u_samplekit perc;
#X obj 88 21 loadbang;
#X connect 0 0 11 0;
#X connect 1 0 11 0;
#X connect 2 0 11 0;
#X connect 5 0 11 0;
#X connect 6 0 5 0;
#X connect 10 0 11 0;
#X connect 11 0 3 0;
#X connect 11 1 4 0;
#X connect 12 0 10 0;
#X restore 459 18 pd load_kit;
#N canvas 492 368 439 568 playPerc 0;
#X msg 258 444 sr 44100;
#X obj 201 484 s_playtable;
#X obj 59 306 sel 0;
#X obj 201 516 outlet~ mono;
#X obj 58 336 / 127;
#X obj 68 16 inlet midi;
#X obj 38 273 unpack f f;
#X obj 92 239 unpack f f;
#X obj 149 212 unpack f f;
#X obj 119 273 sel 0;
#X obj 118 303 / 127;
#X obj 174 239 sel 0;
#X obj 173 269 / 127;
#X obj 67 63 route 65 66 67 61 62;
#X obj 233 213 sel 0;
#X obj 232 243 / 127;
#X obj 292 184 sel 0;
#X obj 291 214 / 127;
#X obj 209 182 unpack f f;
#X obj 292 153 unpack f f;
#X msg 173 296 perc-15 \$1;
#X msg 232 270 perc-16 \$1;
#X msg 291 241 perc-17 \$1;
#X msg 58 362 perc-18 \$1;
#X msg 118 327 perc-19 \$1;
#X obj 258 418 loadbang;
#X connect 0 0 1 1;
#X connect 1 0 3 0;
#X connect 2 1 4 0;
#X connect 4 0 23 0;
#X connect 5 0 13 0;
#X connect 6 0 2 0;
#X connect 7 0 9 0;
#X connect 8 0 11 0;
#X connect 9 1 10 0;
#X connect 10 0 24 0;
#X connect 11 1 12 0;
#X connect 12 0 20 0;
#X connect 13 0 6 0;
#X connect 13 1 7 0;
#X connect 13 2 8 0;
#X connect 13 3 18 0;
#X connect 13 4 19 0;
#X connect 14 1 15 0;
#X connect 15 0 21 0;
#X connect 16 1 17 0;
#X connect 17 0 22 0;
#X connect 18 0 14 0;
#X connect 19 0 16 0;
#X connect 20 0 1 0;
#X connect 21 0 1 0;
#X connect 22 0 1 0;
#X connect 23 0 1 0;
#X connect 24 0 1 0;
#X connect 25 0 0 0;
#X restore 386 249 pd playPerc;
#X connect 0 0 10 0;
#X connect 1 0 0 0;
#X connect 2 0 8 0;
#X connect 3 0 2 0;
#X connect 4 0 6 0;
#X connect 5 0 4 0;
#X connect 6 0 16 0;
#X connect 7 0 6 1;
#X connect 8 0 15 0;
#X connect 9 0 8 1;
#X connect 10 0 14 0;
#X connect 11 0 10 1;
#X connect 12 0 0 1;
#X connect 13 0 4 1;
#X connect 17 1 29 0;
#X connect 18 0 17 0;
#X connect 19 1 28 0;
#X connect 20 0 19 0;
#X connect 21 0 30 0;
#X connect 22 0 32 0;
#X connect 23 0 22 1;
#X connect 24 0 33 0;
#X connect 25 0 24 1;
#X connect 26 0 31 0;
#X connect 27 0 26 1;
#X connect 28 0 22 0;
#X connect 29 0 24 0;
#X connect 30 0 26 0;
#X connect 34 0 2 1;
#X connect 35 0 40 0;
#X connect 36 0 38 0;
#X connect 37 0 36 1;
#X connect 40 0 36 0;
